<svg fill="none" height="64" viewBox="0 0 64 64" width="64" xmlns="http://www.w3.org/2000/svg" xmlns:xlink="http://www.w3.org/1999/xlink"><linearGradient id="a" gradientUnits="userSpaceOnUse" x1="23.7237" x2="41.7571" y1="53.9998" y2="45.3669"><stop offset="0" stop-color="#d83333"/><stop offset="1" stop-color="#f041ff"/></linearGradient><clipPath id="b"><path d="m15 13h33v41h-33z"/></clipPath><rect fill="#1c2128" height="64" rx="8" width="64"/><g clip-path="url(#b)"><path d="m25.7111 47.9213c-1.8767-1.6931-2.4245-5.2507-1.6426-7.828 1.3557 1.6249 3.2342 2.1397 5.1799 2.4303 3.0037.4484 5.9537.2806 8.7441-1.0744.3192-.1551.6142-.3614.963-.5703.2618.7497.3299 1.5065.2385 2.2769-.2224 1.876-1.1684 3.3253-2.6729 4.4238-.6017.4395-1.2383.8323-1.8597 1.2465-1.9089 1.2735-2.4254 2.7666-1.7081 4.9385.017.0532.0323.1061.0709.2352-.9747-.4306-1.6867-1.0575-2.2291-1.8817-.573-.8697-.8455-1.832-.8599-2.8731-.0072-.5067-.0072-1.0179-.0762-1.5174-.1686-1.2178-.7478-1.7631-1.839-1.7945-1.1199-.0322-2.0058.6511-2.2407 1.7272-.018.0825-.044.1641-.07.2601z" fill="#fff"/><path d="m25.7111 47.9213c-1.8767-1.6931-2.4245-5.2507-1.6426-7.828 1.3557 1.6249 3.2342 2.1397 5.1799 2.4303 3.0037.4484 5.9537.2806 8.7441-1.0744.3192-.1551.6142-.3614.963-.5703.2618.7497.3299 1.5065.2385 2.2769-.2224 1.876-1.1684 3.3253-2.6729 4.4238-.6017.4395-1.2383.8323-1.8597 1.2465-1.9089 1.2735-2.4254 2.7666-1.7081 4.9385.017.0532.0323.1061.0709.2352-.9747-.4306-1.6867-1.0575-2.2291-1.8817-.573-.8697-.8455-1.832-.8599-2.8731-.0072-.5067-.0072-1.0179-.0762-1.5174-.1686-1.2178-.7478-1.7631-1.839-1.7945-1.1199-.0322-2.0058.6511-2.2407 1.7272-.018.0825-.044.1641-.07.2601z" fill="url(#a)"/><path d="m15 39.664s5.5572-2.6718 11.1299-2.6718l4.2016-12.8339c.1573-.6206.6165-1.0425 1.1351-1.0425.5185 0 .9778.4219 1.1351 1.0425l4.2016 12.8339c6.6 0 11.1298 2.6718 11.1298 2.6718s-9.4392-25.3795-9.4577-25.4304c-.2709-.7503-.7283-1.2336-1.3449-1.2336h-11.3269c-.6166 0-1.0555.4833-1.3449 1.2336-.0204.05-9.4587 25.4304-9.4587 25.4304z" fill="#fff"/></g></svg>