<svg fill="none" height="64" viewBox="0 0 64 64" width="64" xmlns="http://www.w3.org/2000/svg"><rect fill="#1c2128" height="64" rx="8" width="64"/><path d="m14.6896 52.2018-3.8517-43.2018h42.324l-3.8559 43.1949-17.332 4.8051z" fill="#264de4"/><path d="m46.0051 49.4444 3.2952-36.9122h-17.3003v40.795z" fill="#2965f1"/><path d="m19.6681 28.5554.4749 5.2985h11.857v-5.2985zm-.4725-5.4258h12.8044v-5.2985h-13.2861zm12.8044 19.1866-.0232.0062-5.901-1.5934-.3772-4.2259h-5.319l.7424 8.3195 10.8536 3.0131.0244-.0068z" fill="#ebebeb"/><path d="m31.9814 28.5554v5.2985h6.5246l-.615 6.8718-5.9096 1.5949v5.5125l10.8623-3.0105.0797-.8952 1.245-13.9493.1294-1.4227.9565-10.7243h-13.2729v5.2985h7.4662l-.4822 5.4258z" fill="#fff"/></svg>