<svg fill="none" height="64" viewBox="0 0 64 64" width="64" xmlns="http://www.w3.org/2000/svg" xmlns:xlink="http://www.w3.org/1999/xlink"><clipPath id="a"><path d="m19 13h26v39h-26z"/></clipPath><rect fill="#1c2128" height="64" rx="8" width="64"/><g clip-path="url(#a)"><path d="m32 32.5c0-1.7239.6848-3.3772 1.9038-4.5962s2.8723-1.9038 4.5962-1.9038 3.3772.6848 4.5962 1.9038 1.9038 2.8723 1.9038 4.5962-.6848 3.3772-1.9038 4.5962-2.8723 1.9038-4.5962 1.9038-3.3772-.6848-4.5962-1.9038-1.9038-2.8723-1.9038-4.5962z" fill="#1abcfe"/><path d="m19 45.5c0-1.7239.6848-3.3772 1.9038-4.5962s2.8723-1.9038 4.5962-1.9038h6.5v6.5c0 1.7239-.6848 3.3772-1.9038 4.5962s-2.8723 1.9038-4.5962 1.9038-3.3772-.6848-4.5962-1.9038-1.9038-2.8723-1.9038-4.5962z" fill="#0acf83"/><path d="m32 13v13h6.5c1.7239 0 3.3772-.6848 4.5962-1.9038s1.9038-2.8723 1.9038-4.5962-.6848-3.3772-1.9038-4.5962-2.8723-1.9038-4.5962-1.9038z" fill="#ff7262"/><path d="m19 19.5c0 1.7239.6848 3.3772 1.9038 4.5962s2.8723 1.9038 4.5962 1.9038h6.5v-13h-6.5c-1.7239 0-3.3772.6848-4.5962 1.9038s-1.9038 2.8723-1.9038 4.5962z" fill="#f24e1e"/><path d="m19 32.5c0 1.7239.6848 3.3772 1.9038 4.5962s2.8723 1.9038 4.5962 1.9038h6.5v-13h-6.5c-1.7239 0-3.3772.6848-4.5962 1.9038s-1.9038 2.8723-1.9038 4.5962z" fill="#a259ff"/></g></svg>