<svg fill="none" height="64" viewBox="0 0 64 64" width="64" xmlns="http://www.w3.org/2000/svg" xmlns:xlink="http://www.w3.org/1999/xlink"><clipPath id="a"><rect height="64" rx="8" width="64"/></clipPath><g clip-path="url(#a)"><rect fill="#1c2128" height="64" rx="8" width="64"/><path d="m50.3677 28.1872-.0534-.1365-5.1722-13.4982c-.1052-.2645-.2915-.489-.5322-.6411-.2408-.1495-.5218-.2215-.8048-.2063-.2831.0153-.5547.117-.7781.2914-.221.1795-.3812.4227-.459.6965l-3.4923 10.6846h-14.1413l-3.4922-10.6846c-.0758-.2753-.2364-.5197-.4591-.6984-.2234-.1745-.495-.2762-.7781-.2914-.283-.0152-.5639.0568-.8048.2063-.2401.1527-.4263.3769-.5322.641l-5.1821 13.4923-.0514.1365c-.7446 1.9454-.8365 4.0801-.2619 6.0823s1.7846 3.7633 3.4475 5.0178l.0178.0139.0475.0336 7.8789 5.9003 3.8979 2.9501 2.3743 1.7926c.2777.2109.6169.3251.9656.3251s.6878-.1142.9656-.3251l2.3743-1.7926 3.8979-2.9501 7.9264-5.9359.0198-.0158c1.6591-1.2548 2.8663-3.0141 3.44-5.0135.5737-1.9995.483-4.1312-.2584-6.0748z" fill="#e24329"/><path d="m50.3676 28.1868-.0534-.1365c-2.5202.5173-4.8951 1.5848-6.9549 3.1262l-11.3593 8.5892c3.8682 2.9264 7.2358 5.469 7.2358 5.469l7.9264-5.9359.0198-.0158c1.6615-1.2547 2.8705-3.0151 3.4451-5.0163.5745-2.0012.4834-4.1349-.2595-6.0799z" fill="#fc6d26"/><path d="m24.7646 45.2355 3.8979 2.9502 2.3744 1.7926c.2777.2109.6169.325.9656.325s.6878-.1141.9655-.325l2.3744-1.7926 3.8979-2.9502s-3.3716-2.5504-7.2398-5.4689c-3.8682 2.9185-7.2359 5.4689-7.2359 5.4689z" fill="#fca326"/><path d="m20.6388 31.1771c-2.0581-1.5446-4.4325-2.6149-6.9529-3.1341l-.0514.1365c-.7446 1.9454-.8365 4.0801-.2619 6.0823s1.7846 3.7633 3.4475 5.0178l.0178.0138.0475.0337 7.8789 5.9002s3.3636-2.5425 7.2358-5.4689z" fill="#fc6d26"/></g></svg>