<svg fill="none" height="64" viewBox="0 0 64 64" width="64" xmlns="http://www.w3.org/2000/svg"><rect fill="#1c2128" height="64" rx="8" width="64"/><path d="m14.6562 52.125-3.8437-43.125h42.2813l-3.8438 43.125-17.3438 4.875" fill="#e34f26"/><path d="m32 53.25 13.9688-3.8438 3.2812-36.9374h-17.25" fill="#ef652a"/><path d="m32 28.5h-7.0312l-.4688-5.4375h7.5v-5.25h-.0938-13.2187l.0937 1.4063 1.3126 14.625h11.9062zm0 13.7812h-.0938l-5.9062-1.5937-.375-4.2187h-2.8125-2.4375l.6562 8.3437 10.875 3h.0938z" fill="#ebebeb"/><path d="m31.9062 28.5v5.3438h6.5626l-.6563 6.8437-5.9063 1.5937v5.5313l10.875-3 .0938-.9375 1.2188-13.9688.1874-1.4062h-1.5zm0-10.6875v3.2813 1.9687h12.8438l.0938-1.125.2812-2.7187.0938-1.4063z" fill="#fff"/></svg>