<svg fill="none" height="64" viewBox="0 0 64 64" width="64" xmlns="http://www.w3.org/2000/svg" xmlns:xlink="http://www.w3.org/1999/xlink"><clipPath id="a"><rect height="64" rx="8" width="64"/></clipPath><clipPath id="b"><path d="m-7-6h78v76h-78z"/></clipPath><g clip-path="url(#a)"><rect fill="#1c2128" height="64" rx="8" width="64"/><g clip-path="url(#b)"><path d="m6.8125-6h50.375c7.6375 0 13.8125 6.17094 13.8125 13.80342v48.39318c0 7.6325-6.175 13.8034-13.8125 13.8034h-50.375c-7.6375 0-13.8125-6.1709-13.8125-13.8034v-48.39318c0-7.63248 6.175-13.80342 13.8125-13.80342z" fill="#300"/><path d="m31.5113 38.6291h-8.0921l-1.6532 4.9691c-.0435.1903-.2176.3172-.4133.2961h-4.0896c-.2393 0-.3045-.1269-.2393-.3806l7.0045-19.6018c.0652-.2115.1305-.4441.2175-.6978.087-.4441.1305-.9093.1305-1.3745-.0217-.1057.0653-.2114.174-.2326h5.6341c.174 0 .261.0635.2827.1692l7.9399 21.7798c.0652.2325 0 .3383-.2176.3383h-4.5463c-.1523.0211-.3046-.0846-.3481-.2326zm-6.8304-4.2925h5.5252c-.1305-.4441-.3045-.9727-.5003-1.5225-.1958-.5709-.3916-1.1841-.5873-1.8185-.2176-.6555-.4133-1.2899-.6309-1.9454-.2175-.6555-.4133-1.2687-.5873-1.8819-.174-.5921-.3263-1.1419-.4786-1.6494h-.0435c-.1957.9093-.435 1.8185-.7396 2.7278-.3263 1.015-.6526 2.0722-1.0006 3.1295-.3045 1.0784-.6308 2.0723-.9571 2.9604zm18.577-9.0291c-.7179.0211-1.414-.2538-1.936-.7401-.5004-.5286-.7614-1.2264-.7396-1.9454-.0218-.7189.261-1.3956.7831-1.8819.522-.4864 1.2181-.7401 1.936-.7401.8483 0 1.5009.2537 1.9795.7401.4786.5075.7396 1.1841.7178 1.8819.0218.719-.2392 1.4168-.7613 1.9454-.5003.5075-1.2399.7824-1.9795.7401zm-2.4364 18.3542v-16.282c0-.2114.0871-.296.2828-.296h4.3071c.1958 0 .2828.1057.2828.296v16.282c0 .2326-.087.3383-.2828.3383h-4.2636c-.2175 0-.3263-.1269-.3263-.3383z" fill="#ff9a00"/></g></g></svg>