<svg fill="none" height="64" viewBox="0 0 64 64" width="64" xmlns="http://www.w3.org/2000/svg" xmlns:xlink="http://www.w3.org/1999/xlink"><clipPath id="a"><path d="m13 12h36.114v39.89h-36.114z"/></clipPath><rect fill="#1c2128" height="64" rx="8" width="64"/><g clip-path="url(#a)"><path d="m43.371 31.7775c-.049.0299-1.664-.2412-3.688-.3782-1.7134-.1088-3.4319-.1088-5.1453 0-1.2695.0907-2.9417-.5522-3.1412.2068-.7472 2.8429-2.3577 5.3194-4.399 7.2482-1.4911 1.4251-3.2625 2.5242-5.2015 3.2274-2.267-1.1644-3.338-3.7543-2.3722-6.0249.7662-1.8019 1.6576-3.7851.0118-4.2394-1.1979-.3301-1.8554.8161-2.3161 2.0449-.8832 2.3495-2.5599 4.7825-3.0378 7.6644-.5042 3.0414 0 6.2706 2.6298 8.0933 6.1264 4.2467 12.777-2.6297 19.7895-4.3609 2.5391-.6275 5.3302-.5259 7.5692-1.8227.8085-.4606 1.5058-1.0936 2.0423-1.854.5364-.7604.8989-1.6296 1.0617-2.5458.5051-2.9155-1.0111-5.8091-3.8032-7.2591z" fill="#c21325" stroke="#fff" stroke-width="1.81364"/><path d="m31.3965 31.6045c-.7472 2.8429-2.3577 5.3194-4.399 7.2482-1.4908 1.4258-3.2623 2.5256-5.2015 3.2292-2.267-1.1644-3.3371-3.7543-2.3713-6.0249.7662-1.8019 1.6576-3.7851.0118-4.2394-1.1979-.3301-1.8563.8161-2.316 2.0449-.8842 2.3495-2.5609 4.7834-3.0388 7.6644-.5042 3.0415 0 6.2706 2.6298 8.0933 6.1264 4.2467 12.777-2.6297 19.7895-4.3608 2.5391-.6276 5.3302-.526 7.5692-1.8227.8085-.4607 1.5058-1.0937 2.0423-1.8541.5364-.7604.8989-1.6296 1.0617-2.5458.506-2.9136-1.0102-5.8091-3.8023-7.2546" stroke="#fff" stroke-width="1.81364"/><path d="m37.0206 20.2674 4.9258 10.0484 5.9034-17.4091h-21.6721l5.8889 17.3783z" fill="#c21325"/><path d="m37.0206 20.2674 4.9258 10.0484 5.9034-17.4091h-21.6721l5.8889 17.3783z" stroke="#fff" stroke-width="1.81364"/><path d="m31.0445 35.3531c2.0508 0 3.7134-1.6625 3.7134-3.7134s-1.6626-3.7134-3.7134-3.7134c-2.0509 0-3.7134 1.6625-3.7134 3.7134s1.6625 3.7134 3.7134 3.7134z" fill="#c21325"/><g stroke="#fff" stroke-width="1.81364"><path d="m31.0445 35.3531c2.0508 0 3.7134-1.6625 3.7134-3.7134s-1.6626-3.7134-3.7134-3.7134c-2.0509 0-3.7134 1.6625-3.7134 3.7134s1.6625 3.7134 3.7134 3.7134z"/><path d="m43.1392 35.3531c2.0509 0 3.7134-1.6625 3.7134-3.7134s-1.6625-3.7134-3.7134-3.7134-3.7134 1.6625-3.7134 3.7134 1.6625 3.7134 3.7134 3.7134z" fill="#c21325"/><path d="m43.1392 35.3531c2.0509 0 3.7134-1.6625 3.7134-3.7134s-1.6625-3.7134-3.7134-3.7134-3.7134 1.6625-3.7134 3.7134 1.6625 3.7134 3.7134 3.7134z"/></g><path d="m18.9029 35.3796c2.0504 0 3.7126-1.6621 3.7126-3.7125s-1.6622-3.7125-3.7126-3.7125c-2.0503 0-3.7125 1.6621-3.7125 3.7125s1.6622 3.7125 3.7125 3.7125z" fill="#c21325"/><path d="m18.9029 35.3796c2.0504 0 3.7126-1.6621 3.7126-3.7125s-1.6622-3.7125-3.7126-3.7125c-2.0503 0-3.7125 1.6621-3.7125 3.7125s1.6622 3.7125 3.7125 3.7125z" stroke="#fff" stroke-width="1.81364"/></g></svg>