<svg fill="none" height="64" viewBox="0 0 64 64" width="64" xmlns="http://www.w3.org/2000/svg" xmlns:xlink="http://www.w3.org/1999/xlink"><linearGradient id="a" gradientUnits="userSpaceOnUse" x1="41.1001" x2="6.45002" y1="41.4501" y2="-6.84994"><stop offset="0" stop-color="#4643b9"/><stop offset="1" stop-color="#1e8aff"/></linearGradient><linearGradient id="b" gradientUnits="userSpaceOnUse" x1="24.9892" x2="-13.7112" y1="47.5489" y2="40.5281"><stop offset="0" stop-color="#ff002e"/><stop offset="1" stop-color="#ffada1"/></linearGradient><linearGradient id="c" gradientUnits="userSpaceOnUse" x1="120.987" x2="130.709" y1="116.363" y2="38.3035"><stop offset="0" stop-color="#3c3ba0"/><stop offset=".489583" stop-color="#1e8aff"/><stop offset="1" stop-color="#00b2ff"/></linearGradient><linearGradient id="d" gradientUnits="userSpaceOnUse" x1="39.875" x2="76.7763" y1="13.1579" y2="32.525"><stop offset="0" stop-color="#ffea1a"/><stop offset="1" stop-color="#ffb800"/></linearGradient><mask id="e" height="42" maskUnits="userSpaceOnUse" width="42" x="11" y="11"><path d="m32 53c11.598 0 21-9.402 21-21s-9.402-21-21-21-21 9.402-21 21 9.402 21 21 21z" fill="#fff"/></mask><rect fill="#1c2128" height="64" rx="8" width="64"/><g mask="url(#e)"><path d="m53 11.002h-42v42h42z" fill="url(#a)"/><path d="m11 37.2485h13.125v15.75h-13.125z" fill="url(#b)"/><path d="m24.125 32.5235c0-2.9402 0-4.4104.5722-5.5335.5034-.9878 1.3065-1.7909 2.2943-2.2942 1.1231-.5723 2.5932-.5723 5.5335-.5723h7.35v28.875h-15.75z" fill="url(#c)"/><path d="m39.875 10.9985h13.125v42h-13.125z" fill="url(#d)"/></g></svg>