<svg fill="none" height="64" viewBox="0 0 64 64" width="64" xmlns="http://www.w3.org/2000/svg"><rect fill="#1c2128" height="64" rx="8" width="64"/><path d="m22.5455 33.9868h-11.8785c.0022.0579.0037.115.0067.1721.0045.1106.0128.2204.0196.3309.003.0475.0052.095.009.1418.009.1276.0202.2552.0322.3821.003.0289.0053.0578.0083.0853.0135.1417.0293.2834.0458.4236.0007.0134.0022.0275.0045.0408.0187.1514.0382.3035.0607.4541 0 .0022 0 .0044.0008.0059.137.9383.3421 1.8657.6139 2.7749.0015.0037.003.0074.0037.0111.0428.1439.0878.2864.1336.4281.003.0082.006.0171.0082.0252.0023.0082.0053.0163.0083.0252.042.1284.0863.256.1306.3844.0112.0319.0225.0645.0345.0972.0398.1105.0803.2211.1223.3323.0195.0498.0383.0995.057.1499.0368.092.0721.1833.1088.2745.0278.069.0563.138.0856.2063.03.072.06.1424.0908.2144.0375.0876.0773.1744.1163.2619.0233.0519.0473.1031.0706.1551.048.1046.0975.2092.1478.3131.0165.0334.0323.0667.0488.0994.0585.1202.1178.2382.1778.3561.0105.0178.0188.0364.0285.0542.0676.1306.1366.2604.2079.3895.003.0059.0068.0111.009.0178.015.0267.0315.0527.0465.0794l10.1451-6.0416.0375-.0222c-.4-.834-.6491-1.7213-.7422-2.6228z" fill="#93d500"/><path d="m25.4651 39.3784-.0285.0282-8.3673 8.2718c.0428.0394.0856.0802.1299.118.078.0705.1576.1395.2363.2085.0413.0356.0811.0712.1224.1068.0945.0809.1906.1595.2859.2389.0262.0216.051.0423.0773.0638.1216.099.2444.1964.3684.2924.1186.0927.2379.1825.3595.273.0052.003.009.0059.0135.0096.5048.3729 1.0272.722 1.5654 1.0462.018.0118.0368.0222.0555.0341.1028.0601.2049.1202.3085.1795l.1891.1069c.06.0341.1193.0668.1793.0994.1088.0586.2176.1172.3272.1744.015.0081.03.0163.0458.0237.3039.1573.6131.3035.9253.4444l.2971-.713 4.2084-10.1029.0151-.0371c-.4593-.2434-.8998-.5312-1.3141-.8666z" fill="#4d5a31"/><path d="m24.5941 38.554c-.0899-.099-.177-.2004-.2611-.3042-.0751-.0913-.1471-.1833-.2169-.2767-.0803-.1069-.1583-.2152-.2326-.325-.0743-.1106-.1479-.2218-.2169-.3346l-10.1578 6.049c.1561.2567.3182.506.4848.7523.0052.0089.0105.0178.0165.026.0015.0037.0037.0059.006.0096.0052.0074.0105.0163.0157.0245.0008.0007.0015.0015.0015.003.0135.0192.0271.0385.0406.0586.0007.0007.0015.0022.003.0037s.0007.0007.0007.0015c.1764.2574.358.5112.5448.759.0038.0052.0083.0104.012.0155.0045.0052.0083.0104.012.0156.0818.1061.1629.2122.2469.3176.0113.0141.0218.0274.0338.0408.0856.109.1734.2166.2627.3227.021.0252.0427.0505.0637.0764.0803.095.1606.1892.2424.2827.0353.0401.0713.0809.1073.1202.0698.0787.1389.1573.2102.2345.039.0423.0795.0853.1193.1276.018.02.036.0386.0548.0586.0517.0556.1035.1113.156.1662.0211.0215.0436.043.0646.0653.0923.0949.1861.1906.2806.2841l8.3801-8.2837c-.0961-.0949-.1861-.1929-.2747-.2908z" fill="#6ba43a"/><path d="m35.7008 39.374c-.0923.0735-.1853.1454-.2799.2144l.0203.0349 6.11 10.0258c.2829-.1825.5628-.371.8359-.5691.5914-.4311 1.1632-.8985 1.7148-1.4015l-8.3681-8.2718z" fill="#4d5a31"/><path d="m40.6634 49.7312-.2071-.3406-5.7033-9.358c-.1156.0682-.2334.1306-.3512.1929-.1193.0638-.2386.1224-.3602.1795-1.0956.5135-2.2813.7761-3.4693.7761-.7781 0-1.5556-.1113-2.3075-.3331-.1284-.0379-.2537-.0876-.3797-.1321-.1269-.0438-.2552-.0823-.3798-.1328l-4.2054 10.0963-.1643.3954-.1411.3391-.0007.0015c.0105.0044.0217.0081.0322.0126.012.0044.0233.0081.0345.0133h.0015c.003.0015.006.0023.0083.003.0991.0408.1989.0749.2987.1135.1253.0482.2499.0972.3752.1425.0645.023.1276.0497.1913.0719h.0008c1.3179.4599 2.6809.7824 4.0666.9623.0548.0067.108.0141.1628.0215.0563.0067.1133.0119.1704.0186.1065.0118.2131.0237.3204.0341l.0795.0067c.1314.0126.2627.0237.3933.0326.045.0037.09.0052.1343.0089.1148.0075.2296.0141.3444.0193.0706.0045.1411.006.2117.0089.0915.003.1823.0067.2739.0097.1313.0029.2641.0037.3962.0044.0315 0 .0623.0008.0938.0015 1.1069 0 2.2138-.0912 3.3086-.273.0181-.003.0368-.006.0556-.0082.1155-.02.2311-.0415.3467-.0623.066-.0126.1328-.0252.1973-.0378.0676-.0141.1359-.0275.2034-.0423.1126-.023.2251-.0475.3385-.0735.0202-.0044.0405-.0081.0607-.0141 1.6645-.3828 3.2719-.9764 4.7818-1.7621v-.0007c.099-.0512.1958-.1098.2941-.1632.1171-.0631.2334-.1291.3505-.1952.0803-.0452.1621-.0875.2424-.135.0007-.0008.0015-.0015.0022-.0015h.0008c.0015-.0007.0022-.0015.0037-.0022l.0015-.0015c.0008 0 .0015-.0007.0023-.0007.0015-.0008.0022-.0015.0037-.0023.0045-.0029.009-.0052.0136-.0081.0255-.0156.0517-.0305.078-.046zm-15.194-22.7196c.0923-.0742.1861-.1454.2799-.2151l-.0202-.0342-6.11-10.0265c-.2837.1833-.5636.3725-.8375.5706-.5906.4303-1.1632.897-1.7132 1.3993l8.368 8.2725z" fill="#93d500"/><path d="m16.4883 19.2571c-.0953.0943-.1854.1915-.2784.2864-.0923.0957-.1869.1907-.2777.2872-.6109.653-1.1765 1.346-1.693 2.0744-.0247.0334-.0487.069-.0735.1031-.057.0831-.1141.1655-.1696.2486-.0585.086-.1163.1736-.1726.2604-.021.0319-.042.0646-.0623.0965-1.9248 2.9848-2.9559 6.3702-3.0948 9.7838-.0052.1329-.0082.2657-.0112.3977-.0023.1321-.0068.2649-.0068.397h11.8516c0-.1321.012-.2642.0195-.397.0067-.1328.0082-.2656.0218-.3977.153-1.5254.7489-3.0152 1.7875-4.2661.084-.1016.1793-.1973.2701-.2953.0893-.0986.1734-.2003.2694-.2953zm24.4527-2.9083c-.0157-.0097-.033-.0193-.0487-.029-.1043-.063-.2094-.1239-.3152-.1847-.0608-.0349-.1223-.069-.1831-.1031-.0623-.0342-.1231-.0683-.1854-.1017-.1071-.0577-.2144-.115-.3219-.1721-.0173-.0082-.0338-.0171-.051-.026-.6949-.3591-1.4086-.6752-2.1373-.9497-.0187-.0074-.0375-.0148-.0562-.0215-.1591-.0586-.3182-.1172-.4788-.1721-1.2951-.4466-2.6331-.7606-3.9931-.9371l-.1666-.0222c-.0562-.0067-.1118-.0119-.1673-.0178-.1073-.0127-.2139-.0245-.3219-.0349-.0293-.003-.0593-.0045-.0901-.0082-.1268-.0111-.2551-.0222-.3827-.0319l-.1493-.0089c-.1089-.0067-.2199-.0148-.3287-.0193-.0586-.0029-.1171-.0052-.1749-.0066v11.744c.6094.0624 1.2135.1907 1.7996.3873l8.7432-8.6428c-.3249-.2226-.6529-.4392-.9906-.6417z" fill="#4d5a31"/><path d="m30.1845 13.492c-.1344.003-.2687.003-.4023.0082-.8382.0334-1.6749.118-2.5049.256-.018.0029-.036.0059-.0548.0089-.1163.02-.2319.0408-.3474.0623-.0653.0126-.1314.0245-.1974.0371-.0683.0134-.1358.0275-.2041.0423-.1126.023-.2251.0475-.337.0734-.021.0038-.0412.0089-.0615.0134-1.6635.384-3.2707.9764-4.7825 1.7628-.0983.052-.1943.1106-.2926.1633-.1171.0638-.2342.1291-.3505.1951-.0863.0497-.1741.095-.2604.1454-.0007.0007-.0022.0015-.003.0015-.006.0037-.012.0074-.018.0104-.0225.0141-.0458.0252-.0683.0386l.0008.0014.2078.3406 5.9097 9.6993c.1155-.0683.2333-.1313.3512-.1936.1185-.0631.2386-.1225.3594-.1788.8352-.3941 1.7329-.6429 2.6535-.7353.1336-.0134.2672-.0245.4015-.0312.1336-.0066.2679-.0133.4022-.0133v-11.7159c-.1343 0-.2679.0059-.4014.0081z" fill="#6ba43a"/><path d="m50.4977 32.2237c-.006-.1053-.012-.21-.0195-.316-.0028-.0525-.0063-.105-.0105-.1573-.0083-.1239-.0188-.2478-.0308-.3717-.0023-.032-.0053-.0639-.0083-.0958-.0135-.1387-.0285-.2767-.045-.4147-.0015-.0111-.0022-.0223-.0037-.0334l-.0023-.0156c-.018-.1491-.0383-.2982-.0593-.4466l-.0022-.0141c-.1368-.9365-.3415-1.8621-.6124-2.7696-.0022-.0067-.0037-.0119-.006-.0179-.0428-.1417-.087-.2819-.1313-.4221-.0068-.0186-.0128-.0371-.0188-.0557-.042-.1268-.0848-.253-.129-.3791l-.0361-.1024c-.039-.109-.0795-.2181-.12-.3272-.0203-.0519-.0398-.1038-.0608-.155-.0345-.0906-.0698-.1803-.1066-.2694-.0285-.0719-.0578-.1424-.087-.2122-.0293-.0704-.0593-.1394-.0886-.2092-.039-.089-.0788-.178-.1185-.2663-.0226-.0497-.0451-.1002-.0683-.1506-.0488-.1054-.0991-.2115-.1494-.3169-.0157-.0311-.0315-.0638-.0472-.0957-.0586-.1202-.1186-.2411-.1802-.3598-.0082-.0163-.0172-.0334-.0255-.0497-.0683-.1313-.1388-.2634-.2093-.3932-.003-.0045-.0053-.0097-.0083-.0141-.3446-.6262-.7231-1.2335-1.1339-1.8193l-8.7455 8.6466c.1989.5794.3279 1.1767.391 1.7784h11.8808c-.003-.0586-.0045-.1173-.0075-.1744z" fill="#4d5a31"/><path d="m38.6711 33.1919c0 .1328-.0128.2649-.0195.3977-.0068.1328-.009.2656-.0225.3969-.1531 1.5262-.7482 3.016-1.7868 4.2676-.0841.1017-.1794.1966-.2702.2953-.09.0979-.1733.1996-.2694.2946l8.3801 8.2837c.0953-.0943.1846-.1915.2776-.2872.0931-.0957.1877-.1899.2777-.2871.6199-.664 1.1872-1.3585 1.6975-2.0804.021-.0289.0397-.0571.06-.0853.0623-.0883.1223-.1781.1839-.2671.0532-.0801.1065-.1595.1583-.2404.0263-.0386.0518-.0786.0765-.1172 1.9219-2.9833 2.9507-6.3651 3.0888-9.7765.0053-.1321.0083-.2649.0105-.3977.003-.132.0068-.2641.0068-.3969z" fill="#6ba43a"/><path d="m54.0406 10.0041c-2.168-2.14348-5.683-2.14348-7.851 0-1.7297 1.7094-2.0757 4.2654-1.0453 6.3175l-12.094 11.9563c-2.0757-1.0179-4.6616-.6766-6.3914 1.0328-2.168 2.1434-2.1672 5.6187 0 7.7621 2.1688 2.1435 5.6845 2.1427 7.8525 0 1.7298-1.7101 2.075-4.2661 1.0446-6.3183l12.0939-11.9555c2.0765 1.0179 4.661.6766 6.3907-1.0335 2.168-2.1428 2.168-5.618 0-7.7614z" fill="#424143"/></svg>