<svg fill="none" height="64" viewBox="0 0 64 64" width="64" xmlns="http://www.w3.org/2000/svg" xmlns:xlink="http://www.w3.org/1999/xlink"><clipPath id="a"><rect height="64" rx="8" width="64"/></clipPath><g clip-path="url(#a)"><rect fill="#1c2128" height="64" rx="8" width="64"/><path d="m8.75-3h46.5c7.05 0 12.75 5.76496 12.75 12.8953v45.2094c0 7.1303-5.7 12.8953-12.75 12.8953h-46.5c-7.05 0-12.75-5.765-12.75-12.8953v-45.2094c0-7.13034 5.7-12.8953 12.75-12.8953z" fill="#001e36"/><g fill="#31a8ff"><path d="m17.4277 42.7702v-23.209c0-.1579.0677-.2481.2256-.2481.3834 0 .7443 0 1.2631-.0226.5413-.0225 1.1052-.0225 1.7141-.0451.609-.0226 1.2631-.0226 1.9623-.0451.6992-.0226 1.3759-.0226 2.0525-.0226 1.8495 0 3.3833.2256 4.6463.6992 1.1278.3835 2.1653 1.015 3.0224 1.8495.7218.7218 1.2856 1.6014 1.6465 2.5713.3383.9473.5188 1.9172.5188 2.9321 0 1.9398-.4511 3.5412-1.3533 4.8043-.9022 1.263-2.1653 2.2103-3.6314 2.7517-1.5337.5638-3.2253.7668-5.0748.7668-.5414 0-.9022 0-1.1278-.0225-.2255-.0226-.5413-.0226-.9698-.0226v7.2402c.0225.1578-.0903.2932-.2481.3157-.0226 0-.0452 0-.0903 0h-4.2854c-.1804 0-.2707-.0902-.2707-.2932zm4.917-19.104v7.5784c.3158.0226.609.0451.8797.0451h1.1954c.8796 0 1.7593-.1353 2.5938-.4059.7217-.203 1.3533-.6316 1.8495-1.1955.4736-.5638.6992-1.3307.6992-2.3231.0226-.6992-.1579-1.3984-.5188-2.0074-.3834-.5864-.9247-1.0375-1.5788-1.2856-.8345-.3384-1.7367-.4737-2.6615-.4511-.5864 0-1.1052 0-1.5337.0225-.4511-.0225-.7669 0-.9248.0226z"/><path d="m48.5544 29.8689c-.6766-.3609-1.3984-.609-2.1653-.7669-.8345-.1804-1.669-.2932-2.5261-.2932-.4511-.0225-.9248.0451-1.3533.1579-.2932.0677-.5413.2256-.6992.4511-.1128.1804-.1805.406-.1805.609s.0903.406.2256.5864c.203.2481.4736.4511.7669.609.5187.2707 1.06.5188 1.6014.7443 1.2179.406 2.3908.9699 3.4734 1.6465.7443.4737 1.3533 1.1052 1.7819 1.8721.3608.7217.5413 1.5112.5187 2.3231.0226 1.0601-.2932 2.1202-.8796 2.9998-.6316.9022-1.5112 1.6015-2.5262 2.0074-1.1052.4737-2.4585.7218-4.0824.7218-1.0375 0-2.0525-.0902-3.0675-.2932-.7894-.1353-1.5788-.3835-2.3006-.7218-.1579-.0902-.2707-.2481-.2481-.4285v-3.9246c0-.0676.0226-.1579.0902-.203.0677-.0451.1353-.0225.203.0226.8797.5187 1.8044.8796 2.7968 1.1052.8571.2255 1.7593.3383 2.6615.3383.8571 0 1.4661-.1128 1.8721-.3158.3609-.1579.609-.5413.609-.9473 0-.3157-.1805-.609-.5414-.9022-.3608-.2932-1.1052-.6315-2.2103-1.0601-1.1504-.4059-2.2104-.9473-3.2029-1.6239-.6992-.4962-1.2856-1.1503-1.7141-1.9172-.3609-.7217-.5413-1.5112-.5188-2.3006 0-.9699.2707-1.8946.7669-2.7291.5638-.9022 1.3984-1.624 2.3682-2.0751 1.0601-.5413 2.3909-.7894 3.9923-.7894.9247 0 1.872.0676 2.7968.203.6766.0902 1.3307.2706 1.9397.5187.0902.0226.1805.1128.2256.203.0225.0903.0451.1805.0451.2707v3.6765c0 .0902-.0451.1804-.1128.2255-.203.0451-.3158.0451-.406 0z"/></g></g></svg>