<svg fill="none" height="64" viewBox="0 0 64 64" width="64" xmlns="http://www.w3.org/2000/svg"><rect fill="#1c2128" height="64" rx="8" width="64"/><g fill="#fff"><path d="m12.6379 24.3389h6.8179c2.0012.0168 3.4512.5937 4.3503 1.7299.899 1.1361 1.1957 2.688.8904 4.6555-.1186.899-.3816 1.7808-.7887 2.6458-.3902.8649-.9326 1.6449-1.6281 2.3404-.8482.8818-1.7554 1.4415-2.7221 1.6791s-1.9675.3561-3.0019.3561h-3.0528l-.9667 4.8336h-3.5362zm2.9765 2.9001-1.5264 7.632c.1018.0168.2035.0255.3053.0255h.3561c1.6282.0168 2.9852-.144 4.0704-.4834 1.0853-.3562 1.8149-1.5941 2.1879-3.7142.3053-1.7808 0-2.8071-.9159-3.0783-.899-.2712-2.0265-.3984-3.3835-.3816-.2035.0168-.3984.0255-.5851.0255-.1694 0-.3475 0-.5342 0z"/><path d="m28.7249 19.48h3.5107l-.9922 4.859h3.1546c1.7299.0341 3.0187.3903 3.8669 1.0685.8649.6782 1.1193 1.9675.7632 3.8669l-1.7045 8.4715h-3.5616l1.6282-8.0899c.1694-.8482.1185-1.4501-.1527-1.8063-.2712-.3561-.8563-.5342-1.7553-.5342l-2.8239-.0254-2.0861 10.4558h-3.5107z"/><path d="m42.7981 24.3389h6.8179c2.0011.0168 3.4512.5937 4.3502 1.7299.8991 1.1361 1.1957 2.688.8904 4.6555-.1185.899-.3816 1.7808-.7886 2.6458-.3902.8649-.9326 1.6449-1.6282 2.3404-.8481.8818-1.7553 1.4415-2.722 1.6791-.9668.2376-1.9676.3561-3.002.3561h-3.0528l-.9667 4.8336h-3.5361zm2.9765 2.9001-1.5264 7.632c.1017.0168.2035.0255.3052.0255h.3562c1.6282.0168 2.9851-.144 4.0704-.4834 1.0853-.3562 1.8149-1.5941 2.1878-3.7142.3053-1.7808 0-2.8071-.9158-3.0783-.899-.2712-2.0266-.3984-3.3835-.3816-.2035.0168-.3984.0255-.5851.0255-.1695 0-.3476 0-.5343 0z"/></g></svg>