<svg fill="none" height="64" viewBox="0 0 64 64" width="64" xmlns="http://www.w3.org/2000/svg"><rect fill="#1c2128" height="64" rx="8" width="64"/><path d="m23.4198 34.9101c-1.7396.4937-2.8809 1.3593-3.6327 2.2243.7201-.6302 1.6847-1.2085 2.9858-1.5773 1.3308-.3772 2.4662-.3745 3.4043-.1935v-.7336c-.8003-.0732-1.7178-.0148-2.7574.2801zm-3.7122-6.1668-6.4606 1.7021s.1177.1663.3357.3883l5.4778-1.4434s-.0776 1.0002-.7517 1.8949c1.2751-.9647 1.3988-2.5419 1.3988-2.5419zm5.4079 15.1836c-9.0918 2.4488-13.902-8.0877-15.35828-13.5565-.67284-2.5244-.96656-4.4363-1.04485-5.67-.00841-.1282-.00452-.2362.00454-.3351-.47164.0285-.69744.2736-.6515.9821.07829 1.2331.37201 3.1448 1.04485 5.67 1.45564 5.468 6.26654 16.0045 15.35834 13.5558 1.979-.5332 3.4657-1.5042 4.5818-2.7438-1.0287.9291-2.3162 1.6608-3.9349 2.0975zm1.7086-21.632v.6471h3.5662c-.0732-.2291-.1469-.4355-.2201-.6471z" fill="#2d4552"/><path d="m31.1878 27.624c1.6038.4555 2.452 1.5799 2.9004 2.575l1.7882.5079s-.244-3.4826-3.3941-4.3774c-2.9469-.8373-4.7603 1.6374-4.9809 1.9577.8572-.6108 2.1091-1.1108 3.6864-.6632zm14.2346 2.5911c-2.9497-.8411-4.7624 1.6388-4.9798 1.9545.8579-.61 2.1091-1.1102 3.6858-.6605 1.6012.4561 2.4487 1.5792 2.8984 2.575l1.7908.5097s-.2479-3.4833-3.3952-4.3787zm-1.7766 9.1824-14.8757-4.1587s.1611.8165.779 1.8737l12.5246 3.5014c1.0311-.5966 1.5721-1.2164 1.5721-1.2164zm-10.3134 8.9515c-11.7786-3.158-10.3546-18.1655-8.4487-25.277.7848-2.9307 1.5915-5.1091 2.2606-6.5693-.3992-.0821-.7298.1281-1.0565.7926-.7104 1.4407-1.6188 3.7866-2.4979 7.0706-1.9054 7.1114-3.3294 22.1184 8.4487 25.2764 5.5516 1.4873 9.8765-.7732 13.1004-4.3231-3.0602 2.7716-6.9672 4.3256-11.8066 3.0298z" fill="#2d4552"/><path d="m26.8239 40.4101v-3.0284l-8.4144 2.386s.6218-3.6126 5.0101-4.8575c1.3308-.3772 2.4663-.3746 3.4043-.1934v-12.4218h4.2131c-.4588-1.4175-.9025-2.5088-1.2752-3.2671-.6166-1.2551-1.2487-.4231-2.6836.777-1.0106.8443-3.5648 2.6455-7.4084 3.6812-3.8436 1.0364-6.951.7615-8.2475.537-1.83803-.3171-2.79942-.7207-2.70948.6773.07827 1.2331.372 3.145 1.04484 5.67 1.45564 5.4682 6.26654 16.0047 15.35834 13.5559 2.3749-.6399 4.0512-1.9047 5.2132-3.5169h-3.5053zm-13.5778-9.9646 6.4613-1.7021s-.1884 2.4856-2.6106 3.1242c-2.4229.6379-3.8507-1.4221-3.8507-1.4221z" fill="#e2574c"/><path d="m51.1415 22.4384c-1.6795.2944-5.7089.6612-10.6885-.6736-4.9809-1.3339-8.2857-3.6669-9.5951-4.7635-1.8561-1.5547-2.6726-2.6351-3.4761-1.0009-.7104 1.4415-1.6188 3.7874-2.4981 7.0714-1.9052 7.1114-3.3292 22.1184 8.4487 25.2763 11.7756 3.1552 18.0445-10.554 19.9499-17.6661.8793-3.2833 1.2649-5.7696 1.371-7.3728.1209-1.816-1.1265-1.2888-3.5118-.8708zm-23.664 5.8835s1.8561-2.8868 5.0042-1.992c3.1501.8947 3.394 4.3773 3.394 4.3773zm7.6846 12.9542c-5.5373-1.622-6.3913-6.0376-6.3913-6.0376l14.875 4.1588c0-.0006-3.0026 3.4806-8.4837 1.8788zm5.2592-9.0744s1.8535-2.8848 5.0011-1.9875c3.1474.8961 3.3952 4.3787 3.3952 4.3787z" fill="#2ead33"/><path d="m23.8841 38.2156-5.4739 1.5515s.5946-3.3875 4.627-4.7299l-3.0996-11.6324-.2678.0814c-3.8436 1.0365-6.951.7615-8.2475.537-1.83802-.317-2.79941-.7207-2.70949.6775.07829 1.233.37201 3.1448 1.04485 5.67 1.45564 5.468 6.26654 16.0045 15.35834 13.5557l.2678-.0841zm-10.6374-7.7699 6.4613-1.7022s-.1883 2.4856-2.6105 3.1242c-2.4229.6378-3.8508-1.422-3.8508-1.422z" fill="#d65348"/><path d="m35.4118 41.3369-.2504-.0609c-5.5373-1.6219-6.3913-6.0375-6.3913-6.0375l7.6704 2.1441 4.061-15.6048-.0492-.013c-4.9809-1.3339-8.2856-3.6669-9.5951-4.7635-1.8561-1.5547-2.6726-2.6351-3.4761-1.0009-.7097 1.4415-1.6181 3.7874-2.4974 7.0714-1.9052 7.1114-3.3292 22.1184 8.4487 25.2762l.2414.0544zm-7.9343-13.015s1.8561-2.8868 5.0042-1.992c3.1501.8947 3.394 4.3773 3.394 4.3773z" fill="#1d8d22"/><path d="m24.1623 38.1358-1.468.4166c.3468 1.9551.9581 3.8313 1.9175 5.4889.167-.0369.3327-.0686.5028-.1152.4457-.1203.8591-.2692 1.2571-.4316-1.072-1.5908-1.7812-3.4231-2.2094-5.3587zm-.5732-13.77c-.7544 2.8156-1.4293 6.8681-1.2435 10.933.3325-.1443.6838-.2788 1.0739-.3895l.2718-.0607c-.3313-4.3419.3849-8.7664 1.1916-11.7768.2045-.7615.4096-1.4698.614-2.1304-.3293.2095-.6838.4243-1.0876.6456-.2723.8405-.5473 1.7592-.8202 2.7788z" fill="#c04b41"/></svg>