<svg fill="none" height="64" viewBox="0 0 64 64" width="64" xmlns="http://www.w3.org/2000/svg" xmlns:xlink="http://www.w3.org/1999/xlink"><clipPath id="a"><path d="m11 11h42v42h-42z"/></clipPath><rect fill="#1c2128" height="64" rx="8" width="64"/><g clip-path="url(#a)" clip-rule="evenodd" fill-rule="evenodd"><path d="m19.2124 28.6123c.0564.0425.1542.0702.0564.1541-.0702.0978-.1542.1817-.21.2938-.0558.0983-.0978.1259-.1818.0563.1116-.1822.2232-.3506.3349-.5047zm28.1214 14.6724c0 .0415.0138.0691.0138.1116.0282-.0558.0282-.0839.0426-.1116zm-2.8539 5.5854-2.4349-13.4956c-.0415-.0133-.0973-.0409-.1956-.0691.0281.0558.0425.0978.0563.1398.0691-.0139.0978-.0139.1255-.0277 0-.0138 0-.0276.0143-.0425l2.435 13.4967zm-2.5184-16.5335c-.0138.0415-.0138.084-.0138.1259 0-.0425 0-.085.0149-.1264zm.0139.2795c-.0139 0-.0139 0-.0277-.0149v.0138c.0149.0138.0149.0138.0287 0zm-.0277.1115v-.0982c-.0409.0138-.0829.0138-.1393.0281.0702.0266.1404.0415.1404.0691z" fill="#dd3735"/><path d="m52.846 29.3262c-.0276-.5461-.0414-1.0923-.0978-1.6379-.0978-.7422-.1956-1.4982-.3636-2.2261-.126-.6019-.335-1.1762-.5455-1.75-.2658-.6721-.5316-1.358-.8676-2.0019-.5455-1.036-1.259-1.9604-1.9166-2.9263-.4349-.6163-.9942-1.1199-1.4142-1.75-.2377-.3639-.5875-.6715-.9373-.951-.5598-.4489-1.1473-.8554-1.7348-1.2469-.4433-.3107-.901-.6004-1.3716-.8681-.3775-.2109-.7831-.3788-1.1749-.5611-.4477-.2098-.8815-.4622-1.385-.5599-.1265-.0266-.2381-.0691-.3641-.1116-.3217-.1116-.6295-.2375-.9517-.3358-.4891-.154-.9649-.3357-1.4689-.4622-.4881-.1259-.9921-.2093-1.4961-.28-.5593-.0823-1.1324-.1115-1.6927-.1663-.3577-.0461-.717-.0788-1.0772-.0977-.5316-.0276-1.0771-.0276-1.6087-.0415-.2658-.0143-.5455-.0425-.8113-.0281-.4057.0138-.8113.0558-1.2175.1116-.3913.0425-.7831.1115-1.1606.1684-.4609.0558-.9224.0839-1.3844.1402-.4338.0563-.8814.1403-1.3147.2104-.1542.0282-.3084.084-.4626.1116-.3349.0701-.6847.0983-1.0207.2104-.6008.1827-1.2031.3931-1.7906.6163-.546.2242-1.0776.4622-1.5949.7422-.5317.2932-1.0357.6428-1.5391.9796-.4836.3234-.9553.6642-1.4142 1.0217-.4466.3506-.8666.7422-1.2728 1.1343-.2233.2231-.4056.4898-.6156.7416-.3493.4065-.6991.798-1.0351 1.2183-.2786.3506-.5317.714-.7975 1.0785-.4748.6428-.8804 1.3292-1.2579 2.0157-.1542.2799-.294.5599-.4338.8394-.21.4197-.4338.8261-.6295 1.2602-.1403.2943-.252.6163-.336.9382-.1951.6864-.3913 1.3867-.5731 2.072-.168.6163-.21 1.2602-.2233 1.8903-.0143.56.0415 1.1061.0973 1.6661.0144.1403-.0691.3082.0978.4197-.0558.1541-.0138.2391.0691.2657-.0967.154.0426.2528-.0127.3931-.0144.0276.0425.0834.0691.1254 0 .0425-.0133.0983 0 .1402.0149.126.0707.2519.0707.3921 0 .0978.0835.2099.1117.3082.0138.0414 0 .1115-.0282.1397-.084.0978-.0702.1817.0558.238.0707.1817.0425.2657.0287.3507.0277.1253-.0143.1673 0 .1955.1117.2242.1542.476.1675.7278 0 .0563.0282.1127.0563.1823.0139 0 0 .2656 0 .2656.0691-.0414.126-.0553.1957-.0834.0425.1817.084.3506.1398.5047.0702.1116.0702.1668.0425.1806.0559.2519.0835.4899.1808.7279 0-.2656-.0266-.5313-.0691-.7836.1956.0701.3636.1397.4758.1397.0144-.0425.0282-.0978.0425-.1259-.084-.0834-.1541-.2094-.2381-.2933.0281.1116 0 .1541 0 .1966-.0559-.0287-.126-.0569-.1957-.085.0558-.0691.1117-.1398.1957-.2232 0-.1264-.0692-.239-.2659-.2247.084-.0276.168-.0691.2659-.0978.1541-.0834-.0139-.2374-.0139-.4335.0139-.2375-.126-.4755-.168-.7278-.0701-.3916-.0558-.9797-.0978-1.3718-.084-.0701-.1542.1116-.168.1259.0425.3358.084.6716.1117 1.0079-.0835-.28-.1399-.5882-.2095-.9245-.0144.0983-.0282.1403-.0282.1966-.0691.0691-.0138.1541.0282.2518-.0978-.0425-.21-.0276-.21-.0276v.3921c-.1393-.1403-.1808-.2518-.2515-.3507-.0276-.1115-.0425-.2231-.0691-.3347.0266-.0706 0-.1126 0-.154-.0164-.112-.0306-.2243-.0425-.3369.0138-.0138-.0139-.2231-.0139-.2231.1117.0133.1824.0266.252.0266-.1398-.1807-.0425-.2933.0144-.4054.0282-.0563.126-.0691.1542-.1265.1116-.2098.294-.3772.294-.6439 0-.1259.0425-.2656.0558-.3921.0282-.238.0558-.476.0691-.714.0287-.3081 0-.6163.0707-.9101.1127-.4888.2526-.9791.4062-1.4695.1116-.3507.2382-.6854.3775-1.036.21-.5462.4061-1.0923.672-1.6098.3774-.7565.8113-1.4844 1.2313-2.2261.2658-.4622.5454-.8962.84-1.3441.2791-.434.5582-.8819.8809-1.2883.443-.5733.9397-1.1031 1.4833-1.5822.5598-.5037 1.0915-1.0217 1.6928-1.4839.7817-.6036 1.6145-1.1379 2.4891-1.597.714-.3772 1.4551-.6726 2.1968-.9526.4758-.1817.9931-.2656 1.4833-.4197.5593-.1822 1.1191-.2656 1.7065-.28.3775-.0143.7417-.0563 1.1192-.0983.336-.0265.6714-.0552 1.0356-.0972-.0425.0558-.0563.0839-.0702.1116-.1531.2242-.3211.4484-.4753.672-.126.1823-.2658.3783-.3918.56-.2243.2949-.4625.5887-.672.8968-.3216.4622-.6156.9383-.9516 1.3999-.335.4479-.6991.8682-1.049 1.3017-.4614.6025-.8953 1.2182-1.3567 1.8201-.42.5738-.8666 1.121-1.2728 1.6948-.3636.5032-.6858 1.036-1.0356 1.553-.5173.7703-1.0351 1.5258-1.5524 2.2962-.4061.5863-.8166 1.1697-1.2313 1.75-.0282.0425-.0702.0553-.1117.0834-.1116.1817-.1116.28-.1541.3639-.1117.2099-.2233.4198-.3499.6163-.0701.1116-.168.2094-.252.3215-.0138-.1679.2233-.2519.1117-.4623-.0691.1127-.1398.2104-.2095.3225l-.168.3347c.0558.0425.1542.0707.0558.1541-.0425.0707-.084.1541-.126.2247.0606-.0355.1131-.0833.1542-.1402 0 .154-.084.2794-.1542.4053-.0558.1116-.1956.1966-.2934.28.0138.0144.1116.0563.126.0702.126-.0425.168-.1116.1823-.0702.0425-.0558.084-.0977.0978-.1397.0553-.1403.1393-.2518.2792-.3081.0563-.0282.0978-.0702.1398-.1116.42-.4346.8538-.8543 1.2313-1.3165.588-.7146 1.1196-1.4557 1.68-2.1836.2371-.3081.5173-.6163.7687-.9106.0415.322.0138.6296 0 .9244-.0425.5175-.0702 1.036-.1116 1.5673-.0144.2099 0 .4197-.0144.6301 0 .0558-.0425.0978-.0425.1541 0 .1397.0425.2938.0425.434-.0425.518-.0989 1.0217-.1409 1.5397-.0143.1116.0415.2242.0692.3225-.0692.7555.085 1.554-.0415 2.352.0978-.1541.126-.2519.126-.3496.0133-.084 0-.1679 0-.2657v-.1402c.0133-.2524.0691-.518.0415-.7704-.0282-.28-.0282-.5456.0281-.8118.0282-.1116-.0138-.2518.0564-.3921v.2099c-.0138.7969.0143 1.5954-.0973 2.3934-.0144.0701.0425.1966-.1117.1822-.1265.2519.0277.4341-.1116.5738-.0287.0282.0266.1541.0409.238-.0563.1684-.0563.1685.0277.1823.0138.3081.0425.5876.0558.8819.2233-.5313.1117-1.0785.2105-1.6247.0139.2242.0282.4484.0139.6854 0 .365-.0139.7146-.0277 1.0785 0 .0701-.0143.1402-.0282.2104-.0425.1965-.0558.3921-.126.5738-.0558.1402-.0276.3506-.0276.518v.5328c.0558.238-.0144.364.0276.5037-.0425.1408-.0558.1827-.0425.2247l.0425.2099c.2802-.0282.1542.1822.2659.2938-.084.1126-.0559.154-.0559.2109 0 .1259-.0133.238-.0276.3639 0 .322-.0138.6439-.0138.9521 0 .0425.0138.0834.0138.1254 0 .0286-.0138.3931-.0138.3931.0281.0414 0 .0834-.0426.1254-.0133 0-.0553-1.7782-.0553-1.7782h-.21c-.0276.8394.0426 1.5954-.1116 2.3801-.168.0133-.2233.0415-.4062.0415-.4338 0-.8676 0-1.3014.0138-.5179 0-1.0208.0138-1.5392.0138-.2509 0-.5167.0287-.7687.0287-.336 0-.6858-.0425-1.0208-.0425-.5183 0-1.0218.0425-1.5396.0563-.3775.0138-.755.0138-1.1324.0282-.2526.0132-.5051.0265-.756.0552-.1117.0138-.21.0558-.3499.0978-.0425 0-.1398-.0139-.2232 0-.1409.0281-.2659.1115-.4068.1402-.21.0425-.2658.0978-.2381.3082v.1397c-.0139.0276.3083-.0425.3083-.0425-.0287 0-.0425.0839-.085.1541.1127-.0425.1823-.0702.2525-.0978.21.0983.3918.0425.5593.085.5455.1392 1.1047.1966 1.664.2513.3642.0282.714.0425 1.0777.0558.5173.0281 1.0351.0563 1.5524.0563.4338 0 .8538-.0425 1.2866-.0425.6007 0 1.2036.0276 1.8049.0425.126 0 .2658-.0149.4057-.0149h1.0207c.9102-.0276 1.8193-.0425 2.7289-.069.5184-.0149 1.05-.0425 1.5673-.0569l1.595-.0425c.6156-.0138 1.2313-.0138 1.8331-.0266.4615 0 .9091-.0159 1.3716-.0292.5168-.0138 1.0484-.0558 1.5663-.0834.2801-.0143.5603-.0425.84-.0701.336-.0276.6858-.0691 1.0207-.0834.504-.0287 1.0218-.0425 1.5258-.0707.6295-.0414 1.259-.0972 1.9023-.1116.588-.0276 1.1893-.0138 1.7773-.0276.5178-.0143 1.0356-.0425 1.5673-.0563l.8825-.0425s.5869-.0138.8809-.0425c.5035-.0276 1.007-.0834 1.511-.0972.3211-.0144.6433 0 .9649-.0144.5173-.0138 1.0489-.0425 1.5668-.0425.1951 0 .4051.0287.6571.0425-.1117.0983-.1819.1541-.2659.2242.0559.0138.1117.0425.168.0702-.0652.046-.1434.0702-.2232.069-.0288.0707-.0569.0988-.0851.2391h.252c-.0978 0-.1818.1259-.2796.2099-.1117-.0287-.21 0-.2659.154.0979.0553.084.0973.0702.1541-.168.0553-.294.1116-.2233.2933-.0569.0276-.1265.0558-.1967.0977-.0691.1116-.1956.1398-.168.2938.0564.0133.1116.0425.1542.0553-.0702.0281-.1398.0701-.21.0977-.2515.1541-.1393.2242-.0835.2944-.0425.0281-.084.0557-.126.0701.0277.1259.0691.1541.0835.1541-.0715.054-.1416.11-.21.1678-.0426.126-.0984.1817-.1542.2657-.0558.0839-.084.1966-.1542.28-.2934.3225-.5034.7013-.8809.9526-.1404.0982-.2658.2242-.3918.3506-.252.2375-.4759.5037-.7417.7279-.3515.2908-.7155.5663-1.0909.8256-.461.3219-.9224.6439-1.3844.952-.252.1674-.5317.2933-.7975.4474-.2658.154-.5178.2943-.7836.4478-.168.1116-.3222.2657-.504.3507-.4615.1965-.9517.3639-1.427.5461-.4625.1966-.7974.364-1.1473.4899-.3216.1115-.6576.1965-.9931.2656-.1116.0287-.2382 0-.3642.0144-.2381.0425-.4758.0988-.714.1264-.6156.0839-1.2312.1403-1.8464.2242-.3641.0425-.714.1116-1.0776.1541-.2515.0138-.5173-.0138-.7693-.0138-.1818 0-.3775.0425-.5598.0143-.2935-.0425-.5875-.1116-.8815-.1679-.0691-.0138-.168-.0425-.2233-.0138-.1116.0563-.2105-.0276-.3227 0-.0691.0144-.1393-.0425-.2095-.0425-.0563-.0133-.1265.0149-.1967 0-.1541-.0414-.2934-.0972-.4625-.0834-.1664.0138-.3349-.0701-.5157-.1116-.2525-.0563-.4891-.1115-.7422-.1684-.0978-.0305-.1915-.0728-.2791-.1259-.3642 0-.6023-.0138-.8262-.0983-.1956-.0691-.3774-.1673-.5874-.1392-.0553.0138-.0973-.0138-.1542-.0138-.0425-.0563-.0835-.1684-.1249-.1684-.2797.0143-.4477-.2232-.6859-.2938-.1254-.0425-.2233-.1822-.3493-.2242-.3083-.1259-.5592-.3916-.9091-.4335-.1116-.0144-.2233-.0702-.3498-.1116.0425.0552.0691.0972.1117.1392-.4057-.1966-.7832-.4197-1.1612-.6301-.0553-.0138-.0973-.0691-.1393-.0978l-.3774-.2518c-.21.0425-.294-.0425-.3509-.0701-.3775-.2657-.8108-.4341-1.1749-.7279-.1542-.1264-.335-.2104-.4466-.3644-.1967-.2381-.4344-.4059-.7002-.5457-.2095-.1115-.4051-.238-.6008-.3639-.0983-.0701-.1967-.1541-.1967-.3081 0-.0983-.0414-.1966-.1674-.1403-.0559-.0839-.1117-.1817-.1819-.2098-.168-.0691-.2796-.1966-.4056-.3082s-.2233-.2656-.3775-.3214c-.2802-.1116-.4482-.3496-.6156-.5456-.3924-.4623-.7422-.967-1.1058-1.4557-.0282-.0426-.084-.0707-.126-.1127.0558.1541.126.28.1956.4197-.1393-.0558-.2371-.154-.3211-.2518-.0144.0143.9649 1.6241.9649 1.6241.0851.1259.1542.2524.2382.3783-.0843.0078-.169-.0092-.2437-.0491-.0746-.0398-.136-.1007-.1763-.1751-.1255-.2231-.2658-.3634-.5455-.3347-.0296-.1011-.0527-.204-.0691-.3081-.0569 0-.0983 0-.1967-.0144.1967.3082.3642.5738.546.8819-.0707-.0425-.1116-.0701-.1409-.0839.2515.2656.4333.6019.755.7703.0701.3215.4338.4755.5178.7837-.0691-.0144-.1265-.0282-.1967-.0425-.1117-.1397-.2377-.2795-.3631-.4335.0276.0977.0691.1817.1254.2518.168.2098.3222.4197.5179.6019.0701.0712.168.0994.168.2253.1116.0558.1541.0691.1956.0691.0287.085-.0133.2109.1542.1827.1116.2099.2233.2099.3774.1403.1824.1822.2808.1966.4062.085 0 .069.0138.1392.0138.1955.0559-.0282.0426-.0701.0426-.1403.0691.0558.1116.084.1393.1116.1398.1966.2658.3783.4614.5323.2659.2242.504.4623.755.6721.4901.4064 1.0367.7427 1.5816 1.0504.672.3782 1.3158.7841 2.0011 1.1475.8251.4346 1.7066.7289 2.6157.9388.336.0701.6577.1397.9942.2231.2924.085.5869.211.8809.2806.4477.0982.9092.1822 1.3568.2656.0973.0143.1967.0287.3084.0425.1249.0282.2785-.0282.3067.0143.0702.1116.126.0553.21.0415.0978-.0282.21-.0282.3217-.0282.3918.0138.7693.0978 1.1611.0702.085 0 .2105-.0707.2807.069.1255-.0558.1956-.0558.2515-.069.0148.1253 0 .1253-.0266.1391-.0287.0139-.0707.0282-.1266.0702.5035.0977.9793.1115 1.3983 0 .7283.0558 1.3578-.0282 1.9596-.238.0558.0701.0978.1678.1818.0281.0277-.0425.0979-.0568.1542-.0706.1255-.0282.2797-.084.3913-.0425.1265.0425.1685-.0691.2658-.0691.1686 0 .3222-.0144.4764-.0425.084-.0138.168-.0558.2658-.084-.0958-.0475-.2014-.0717-.3084-.0706.1686-.084.3222-.1541.4764-.2232-.0282.0415-.0564.0973-.1116.0973h.1951c-.0426 0-.0984.1259-.168.2098.5029-.1259.9644-.238 1.4126-.3506-.1542-.2933.1674-.195.2796-.3634-.1398.0425-.2796.0839-.42.1116.4758-.2375.9655-.4474 1.4408-.6572-.0692.0839-.1542.1259-.2792.1965.084.0133.1399.0133.1819.0266.2233.0707.168-.1392.2376-.2656.2658 0 .3775-.0415.5035-.084.1398-.0425.2796-.0839.42-.1397.2233-.0978.4333-.2231.6571-.3347.0425-.0149.1116 0 .168 0 .1542-.0988.2095-.1828.2515-.169.1967.0282.3349-.0425.3913-.2231.0978-.0707.168-.1264.2376-.169.3073-.1678.6008-.3357.9091-.5036.1117 0 .168 0 .1957-.0143.1828-.0851.3508-.1817.5183-.28-.048-.02-.0947-.0431-.1398-.0691.1393-.0287.1808-.0425.2658-.0707.335-.3931.7975-.6587 1.1468-.9669.1541-.0138.1541-.0558.1541-.0834.0553-.0701.1117-.1541.1808-.2104.3084-.28.6433-.518.9235-.8118.4056-.407.7974-.8272 1.1611-1.2612.3349-.3921.672-.7837.9516-1.2177.3919-.602.7273-1.2183 1.0772-1.8489.252-.4473.4758-.8952.7283-1.3431.0266-.0425.0835-.0983.1255-.0983.3774-.0425.756-.069 1.1196-.1115.084-.0138.1818-.0691.2658-.1116-.0425-.0701-.0701-.1541-.1116-.2242-.0564-.085-.1404-.1541-.1967-.2391-.0553-.069-.0973-.1541-.1393-.2375-.0425-.069-.084-.1253-.126-.1965-.0851-.1541-.1685-.3082-.2392-.475-.0139-.0425-.0426-.1116-.0277-.1541.252-.5456.3498-1.1337.5875-1.6799.2376-.56.3083-1.1901.42-1.792.0978-.5738.1542-1.1476.2233-1.7213.0425-.4059.0983-.798.1116-1.2039.0851-.6439.0564-1.2464.0425-1.8489-.0138-.5313-.0425-1.0774-.0691-1.6098zm-35.1019 17.2337c-.0978-.1115-.1818-.238-.2796-.3496l.0425-.0425c.1526.1685.3068.3363.4604.5186-.084-.0425-.1818-.0702-.2233-.1265zm.2233.1265c.0426-.0144.0851-.0144.1266-.0282.0425.0701.0701.1541.1116.238-.1956-.0143-.2935-.0983-.2376-.2098zm14.5512 5.7819v-.0425c.2658-.0276.5173-.0558.7831-.0834v.0409c-.2658.0425-.5173.0691-.7831.0839zm3.5248-.3639c-.1951.0425-.4051.0706-.6008.0988-.0702.0138-.1542.0839-.1818-.0425-.0282.0143-.0564.0143-.084.0287.0691.2093.2376.0414.3775.1254-.3084.0425-.6008.0701-.8953.1115v-.0276c.085-.0138.1823-.0281.2658-.0425v-.0414c-.1394-.0166-.2796-.026-.42-.0282-.0409 0-.0973.0563-.1393.0701-.0558.0138-.1116.0282-.1818.0282-.2377.0138-.4753.0138-.6997.0276-.0143 0-.0425-.0138-.0563-.0138v-.0425c.9373-.1254 1.8607-.2513 2.798-.3772.0144.0276.0144.0558.0282.0834-.084 0-.1398.0292-.21.0425zm.2105-.1392c.3222-.0425.6167-.0701.924-.1116-.6433.1817-.8538.2093-.924.1116zm-12.1858-28.2668c.4465-.6163.9091-1.2326 1.3567-1.8622.1398-.1833.2515-.3793.3913-.561.0425-.0563.0984-.0839.168-.1403l-.0138-.0265c.0558-.0707.1116-.1275.1398-.1828.0713-.1115.1133-.238.1691-.3639.0149-.0217.0338-.0402.0558-.0547.1967.0977.1967-.1116.2658-.1823.126-.1402.252-.2938.3637-.434.084-.1116.168-.2099.2381-.3358.0139-.0425-.0281-.1115-.0425-.1684h-.0415c.0426-.0276.084-.0691.126-.0978.0139 0 .0139 0 .0277-.0138.084-.1264.168-.2523.252-.3644.1675-.2232.3493-.4474.5449-.6429-.0276.0691-.0558.1398-.084.1955.0144 0 .0144.0144.0282.0144.168-.2242.3498-.4341.5178-.6588-.0143-.0133-.0281-.0276-.0425-.0276-.0691.0701-.1255.1402-.1956.2104-.0139-.0144-.0277-.0282-.0426-.0282.1409-.1822.2807-.3639.42-.5738.0282.0425.0564.0978.1117.2099.0569-.1398.1127-.2375.1541-.3358-.0414.0425-.0972.0839-.1392.1264l-.0426-.0425.252-.3772c.2658-.3782.5317-.7703.7975-1.1486.0983-.1397.2233-.2518.3083-.3921.2659-.5313.6859-.952 1.007-1.4419.0702-.0977.168-.1817.252-.2656.0691-.085.126-.0563.1818.0138.3775.476.7549.9659 1.1324 1.4419.2807.3506.5604.6853.8262 1.0498.3216.4484.6295.8963.9516 1.3441.3637.518.7273 1.036 1.0771 1.5673.5317.7847 1.0352 1.5689 1.5668 2.3525.3918.5738.7836 1.1343 1.1611 1.7081h-.7145c-.6571-.0133-1.3291-.0691-1.9862-.0414-.8953.0425-1.8044.1402-2.6997.2103-1.1335.0983-2.2808.1116-3.4132.1116-.4067 0-.8124.0569-1.2175.085-.4901.0277-.966.0558-1.4556.0691-.5742.0287-1.1324.0425-1.7066.0568-.3222.0139-.6576 0-1.0075 0zm16.0466 6.4391v.1265c-.0138 0-.0276.0143-.0558.0143-.0558-.1966-.1116-.407-.1818-.603-.1398-.4064-.294-.8129-.546-1.1763-.2807-.3915-.5317-.7969-.8124-1.2033-.0691-.0983-.168-.1822-.252-.2657-.294-.3224-.588-.6587-.9654-.8962-.5562-.3486-1.1414-.6487-1.7492-.8968-.1687-.0724-.3321-.1566-.4891-.2519h.335l2.3924-.0425c.5178-.0132 1.0218-.0132 1.5391-.0414.1255 0 .1956.0425.2658.1541.1255.2098.2515.4197.3913.6301.0144.0276.0425.069.0425.1115 0 .3082 0 .6301.0138.9383.0133.3219.0426.6301.0553.952 0 .322-.0281.6578-.0138.9935.0144.4766.0282.967.0282 1.4557zm-15.0541-4.688c.6577-.0282 1.2866-.0701 1.931-.0983.5024-.0282 1.0207-.0425 1.5237-.0701.21-.0133.4062-.0266.6156 0-.2233.1126-.4476.2247-.6433.3644-.252.1679-.4891.3916-.7416.5738-.2525.1817-.4764.4059-.6858.6439-.2659.3214-.5599.6014-.84.9096-.1967.2242-.42.434-.5875.672-.2376.3082-.4476.6429-.6715.9935.0702-1.3303.1542-2.6457.0979-3.9899zm9.1364 13.468c-.4482.1115-.9091.238-1.3717.2938-.3913.0563-.7974.0425-1.2031.0425-.3598.0001-.7195-.014-1.0782-.0425-.4056-.0415-.8113-.0835-1.2031-.2657-.3365-.1541-.6858-.2938-1.0207-.4622-.3371-.1679-.6726-.3634-.9251-.6715-.1808-.2248-.4333-.4065-.6571-.6025.0425.1679.1398.3081.294.4059-.0702.0839-.168.0425-.3084-.1822-.0414.0281-.0834.0425-.1116.0563.0425-.0983.084-.1966.126-.28-.0558-.1116-.126-.238-.1818-.3507-.1117-.1817-.2233-.3772-.3217-.5594-.0282-.0425-.0282-.0839-.0558-.1259-.0698-.0807-.1355-.165-.1967-.2524-.1117-.1673-.2095-.349-.3493-.5174 0 .0425.0143.0839.0143.1402-.0143 0-.0281.0138-.0281.0138l-.2946-.714c-.0138 0-.0138 0-.0276.0138l.2515.9244c-.0139 0-.0277.0133-.0426.0133-.0409-.0552-.0829-.1116-.1116-.1806-.0277-.1126-.1117-.1127-.1808-.0707-.0425.0282-.0707.1259-.0563.1679.0983.238.21.476.3221.714.0277.084.0559.1541.0979.2381.0143.0281.0563.0557.0563.0977.0564.1116.0984.2232.168.322.126.1679.2658.3357.3918.5036.125.1679.2366.3507.3488.518.0138.0282.0558.0282.0691.0425.0707.2099.3084.3634.4764.2795.0425.3219.3918.434.5316.7422-.1373-.056-.2726-.1168-.4056-.1822-.0144.0138-.0144.0276-.0287.0557.168.084.336.1679.4891.2657.1409.085.2807.1684.4067.2656.168.1541.3642.2391.6008.2943-.0048-.0206-.0139-.0399-.0266-.0568.3913.1822.7974.3783 1.1047.5313-1.4551.0287-3.008.0568-4.6173.085 0-.2657-.0138-.518-.0138-.7842 0-.1116.0276-.2098.0133-.3219-.0426-.6429-.0426-1.2879-.126-1.918-.0835-.6715-.0835-1.3298-.0692-2.0029.0133-.3629-.0143-.7406-.0287-1.1051 0-.4898 0-.9669.0149-1.4557 0-.0701.0282-.1259.0564-.1965h.0425c.0133.0286 0 .0706.0266.085.0425.0425.1127.1115.1409.0977.0834-.0563.2094-.1115.2376-.1966.0691-.1673.0978-.3495.0978-.5174 0-.1254.0564-.2093.1117-.2938.0287-.0425.0425-.084.0707-.1397-.0558-.0425-.1116-.0702-.1818-.126.0563-.154.0425-.3363.2525-.4197.0276-.0143.0276-.085.0425-.1264.0133-.1132.0266-.2391.0415-.3507.0277.0425.0425.0558.0691.0834.0079-.0152.0176-.0294.0287-.0425 0-.0552-.0138-.1673 0-.1673.168-.0282.0978-.2099.1818-.2938.0133-.0149-.0143-.0569-.0143-.085 0-.0276 0-.0691.0138-.0691.1951-.0425.1675-.2523.2935-.3506.0425-.0282.0558-.0691.1116-.1398.1117.1956-.084.2938-.0978.4336.2371-.1398.3073-.4755.1675-.5738.0558-.0425.1116-.0978.1542-.1541.1541-.1679.3211-.3219.4614-.4898.0984-.1254.1542-.2795.252-.4054.0564-.0701.168-.1259.252-.1684.252-.1392.4891-.2933.6433-.5313.0282-.0281.0702-.0558.1117-.0839.0425-.0282.1265-.0282.1403-.0702.0144-.0276-.0276-.0977-.0558-.1397.0553-.0281.1116-.0839.2233-.1402-.0425.0839-.0558.1402-.084.1965l.0691.0691c.1265-.0978.3222-.2093.4482-.2933 0-.0133-.0702-.069-.0702-.069-.0835.0425-.2095.1115-.3349.1678.0265-.0425.0265-.0701.0425-.0839.1951-.1259.3908-.2518.6008-.3506.4891-.2232.9792-.4474 1.4689-.6572.084-.0425.1967-.0138.294-.0138.0415 0 .0691 0 .1116-.0139.2233-.0701.4477-.1402.6715-.1965.0973-.0277.2089-.0415.3084-.0415.4184.0133.8384.0133 1.2578.0415.1819.0138.3499.0557.5179.1115.2153.0748.4256.1636.6294.2657.2377.1275.4615.2667.6858.4208.4057.2656.7832.5599 1.1888.7979.3918.238.6996.56.9516.9245.3084.4335.6577.8256.7975 1.3574l.2095.9244c.0425.1679.1403.3358.0983.5313-.0707.3506-.1265.7146-.1823 1.0647-.0277.1408-.0558.2816-.0415.4197.0266.4356-.1409.8129-.3083 1.2049-.0564.126-.1404.2524-.21.3921.0342.0242.0718.0432.1116.0563l.126-.2518c.0144 0 .0144 0 .0282.0144-.0702.1955-.126.4059-.1967.6019-.167.4341-.335.8819-.545 1.3016-.1116.2381-.3083.4341-.4476.6588-.1393.1955-.2515.4054-.3913.5876-.126.1541-.2515.3082-.42.4197-.3775.28-.7693.56-1.1749.7842-.2515.1541-.5455.238-.8251.3081zm-7.4574-.7438-.0138.0143c-.0293-.0138-.0713-.0276-.0989-.0558l-.336-.5047c-.0277-.0414-.0426-.0834-.0277-.1392.1542.238.3089.4622.4764.6854zm8.703 1.9179c.629-.2657 1.1468-.6429 1.6215-1.0775.0707-.0701.1404-.1397.2244-.1965.588-.3634 1.0208-.8676 1.4131-1.4276.4477-.6439.7417-1.3717 1.1058-2.0576.0247-.053.0526-.1045.0835-.1541-.0282 1.596.1542 3.1638.3636 4.7459-1.5805.0558-3.1898.1116-4.8124.1679zm14.1859-.4197c-.0138.0281-.0425.0563-.0558.085-.0144-.0287-.0144-.0707-.0282-.1275-.084.2247-.2658.1126-.3918.1126-.7549.0143-1.5248.0143-2.2808.0143-.7273 0-1.4684 0-2.1957.0128-.2381 0-.4901.0558-.7283.0701-.5731.0277-1.1468.0425-1.7204.0558-.0425 0-.084-.0691-.1542-.1254-.0246.0441-.0527.0862-.084.1259-.0149-.0276-.0425-.0552-.0707-.0972-.0138.0425-.0282.084-.0425.1116h-.0404c-.0282-.1955-.084-.3772-.084-.5738 0-.4197.0425-.8394.0558-1.2602.0143-.1955 0-.3772 0-.56.0563.0425.0983.0707.1542.1116.0276-.0547.0558-.0967.084-.1381 0 0-.0282-.0149-.0564-.0425.0266-.0144.0553-.0425.0553-.0563.0138-.0425.0425-.084.0425-.1116 0-.0983-.0287-.1822-.0425-.2657.0138 0 .0276 0 .0425-.0148l.0835.4197h.0425c-.0563-.0972.1255-.1817-.0281-.2933-.0139-.0143.0138-.0983.0138-.1402-.0426-.0835-.0691-.1674-.1117-.2795.0139-.0138.0559-.0282.0979-.0425-.0559-.0276-.0979-.0553-.1399-.0691.1399-.1264.1398-.1965.0138-.3363.0288-.0133.0564-.0132.0564-.0265 0-.1265 0-.2524-.0276-.3772-.0282-.1414.0425-.3082-.168-.3932.0138.0425.0281.0701.0558.1116 0 0-.0425.0143-.084.0425-.1818-.1684-.0691-.3932-.1117-.6445.0979.0282.168.0564.2377.085-.0282-.0988-.0978-.2109-.1398-.3368h-.0569v-.9244c0 .0143.0978.0143.1542.0287 0-.0144.0132-.0282.0132-.0425-.0425-.0558-.0983-.1116-.1541-.1817l.0281-.0282c-.1116-.1392-.0558-.3347-.0558-.3772v-.9802c.1404.1402-.0691.3219.1404.4059v-.1397h-.0144c-.0138-.2099-.0138-.4198-.0276-.6301h-.0277c-.0143.0287-.0143.0425-.0287.0706h-.0276l.084-3.346c.1398.1817.2934.3507.3913.5313.3221.5887.7416 1.0928 1.1334 1.6247.336.4622.6433.9658.9517 1.4418.3774.5738.7411 1.1476 1.1191 1.7214.2796.4346.5742.8686.8666 1.2889.2658.3772.5465.7417.8262 1.1061.2371.322.4891.6439.7267.9659.2802.3921.5598.7836.84 1.1619.1393.1955.2935.3915.4466.5876.0851.1116.2105.1966.2945.2656-.0133 0-.0276 0-.0553-.0138.0426.0558.0691.0978.0979.1259.1541.084.168.1679.084.2944zm.7135-3.499v-.0983c0 .0276.0138.0696 0 .0983zm.4758-6.1735c-.0143 0-.0978-.085-.1116-.0988-.0144.0425 0 .0839-.0282.1402-.0144-.0414-.1117-.0276-.1117-.0691-.0143.1956.0835.3916.0692.5876.0425-.0281.21-.0425.252-.0839.0143.0138.0425.0276.0563.0276-.2802.2104-.21.4197-.084.6588.0277.0553.1117.1674.0277.2795-.0277.0281.0143.1115.0281.1822h.041v.0266l-.126.0425c-.0277-.0425-.1951-.1254-.1951-.1966v.7151c.1398.0425.1398.238.1956.3363.0245-.0341.0436-.0717.0569-.1116l.0143.0128c-.0143.0839-.0281.1679-.0563.2523-.0277.1254-.0558.2375-.0691.3634 0 .0138.0266.0425.0266.0558-.1532.3507-.0692.7417-.125 1.1051-.0425.2656 0 .5472-.0282.8267-.0287.238-.085.4898-.1403.7278-.0144.0425-.0425.0558-.1117.084.0277-.1679.0139-.28-.0143-.4341-.0149 0-.1967-.0978-.2111-.0978 0 .1966.1117.4623.1542.6854-.0425-.0138-.21-.1116-.2233-.1116-.0287.1679-.0287.3921-.0425.5738-.0144.1403-.1398.2656-.1542.4197 0 .085.0978.1403.084.2805h.1116c0-.2794.1266-.5312.1266-.8256h.0414c.0144.0282.0564.0563.0426.0702-.0282.154-.0851.3219-.0702.476 0 .0839.0691.1679.0425.2656-.0287.085-.0425.1684-.0569.2944-.0143-.0702-.0281-.0978-.0281-.1398-.0139 0-.1399-.0143-.1542-.0143-.0138.0839.0983.1679.084.238-.0138.0138-.0277.0138-.0558.0282l-.4615-.6726c-.3647-.5313-.7284-1.0642-1.092-1.6098-.0943-.1336-.1787-.2739-.2525-.4197-.4327-.7451-.914-1.4608-1.4408-2.1427-.4051-.5175-.7283-1.0785-1.1058-1.6231-.3488-.518-.6986-1.0221-1.0484-1.5407-.126-.1673-.2797-.3214-.3918-.5036-.3632-.5738-.6859-1.1619-1.0484-1.7357-.3084-.4766-.6433-.9388-.9655-1.4005-.1117-.1541-.2233-.3225-.336-.4904-.0176-.0292-.0271-.0626-.0277-.0966-.0281-.3082-.0563-.6163-.0701-.9101 0-.28.0281-.56.0281-.8543v-.2519c0-.0701.0133-.1259.0133-.1965.0133-.0133.0277-.0415.0415-.0553-.4056 0-.8256-.0149-1.2313 0-.2658.0133-.4056-.0988-.5875-.2948-.5316-.602-.9234-1.2879-1.3849-1.9318-.4351-.6126-.8782-1.2196-1.3291-1.8207-.3642-.4898-.7284-.9659-1.0915-1.4557-.4062-.56-.7974-1.1199-1.2174-1.6799-.5089-.6751-1.0219-1.347-1.5392-2.0157-.2392-.3081-.505-.6019-.7708-.9244.1823.0287.3508.0563.5183.0706l.672.0425c.5035.041 1.0069.0691 1.5099.1382.42.0568.84.1408 1.2738.2104.924.154 1.8331.4064 2.7146.7002.5178.1679 1.0207.3921 1.5258.6019 1.1324.4623 2.2101 1.0222 3.2734 1.6098.3349.1822.5316.476.7825.7422.3642.3783.7284.756 1.0777 1.1476.4051.4622.7826.9382 1.1749 1.4143.3493.4197.7124.8394 1.0633 1.2602.1116.1259.1967.2799.2935.4197.2233.3363.4758.6588.6714 1.0222.1393.2667.2233.5748.3212.8686.1392.4341.2796.8538.42 1.2878.0972.322.1807.6588.2509.9935.0563.2247.0425.4622.1116.6854.0851.2954 0 .6163.0851.9111.0133.0282.0266.0701.0415.0983.0558.0553.0978.1116.0138.1955-.0133.0138-.0133.0691 0 .1116.0287-.0276.0425-.0558.0707-.0978 0 .0282.0133.0425.0133.0558 0 .0553-.0144.1116 0 .1674 0 .0276.0276.069.0415.0977.0281-.0287.0558-.0425.1116-.085.126.4766.1404.9526.1404 1.4424 0 .4623.0834.9245-.1117 1.3723.0415-.154-.0563-.2948-.0143-.4345z" fill="#dd3a0a"/><g fill="#dd3735"><path d="m41.8783 35.4439c.0133 0 .0276.0143.0276.0143l-.0143-.0159c0-.0133 0-.0133-.0139 0zm2.21 13.8324c-.1542.1116-.3083.2099-.504.2518-.0149-.0138-.0149-.0281-.0287-.0425.1542-.0977.3217-.1955.4758-.2938.0144.0266.0426.0553.0564.0834zm-26.2324-18.971c.1541-.195.3083-.391.4753-.587.0132.0138.1249.0425.1392.0557-.1541.1966-.3641.4623-.5178.6721-.0287-.0281-.0707-.1259-.0983-.1402zm-3.9741 6.8615c-.1116-.238-.2233-.4904-.3349-.7278.0389-.0247.0812-.0436.1254-.0564.1542.2232.2233.4888.336.7279 0 0-.1116.0558-.126.0558zm3.5684-6.7207c-.084.1265-.168.2667-.252.3932-.0138-.0149-.168.0552-.1818.0414.084-.1259.2935-.3506.3775-.476.0143.0138.0281.0281.0563.0425zm25.1415 19.4051c.0133 0 .0133-.0139.0277-.0139.0978.0139.2094.0277.3216.0277-.1829.1259-.295.1115-.3509-.0138zm-25.1149-18.817c.0149-.0425.0425-.0839.0707-.1259.0277 0 .0691-.0143.0691-.0143.0569-.0978.0569-.1679.1127-.2518-.0138-.0139-.0281-.0139-.0425-.0282-.0835.0574-.1675.1275-.2515.1833.0282.0276.0282.0425.0282.0701-.1116-.0143-.1542.0425-.21.1955-.0138.0425-.084.0563-.1542.1116-.0138.0287-.0276.0988-.0558.1684l.0144.0149c-.0282.0282-.0702.0425-.0702.0425-.084.0834-.1818.1541-.2658.2375-.0139.0425-.0277.0839-.0277.1259.0984-.0978.2658-.28.3918-.3921l.0144.0144c.0558-.084.0978-.1679.1542-.2519.0133.0138.0133.0277.0276.0425-.0425.1116-.084.237-.126.3491-.0292.0138-.0712.0425-.0712.0281-.0558.0425-.0978.0978-.1542.1398l-.2515.1678c-.1398.126-.2796.2375-.4338.364-.0978.154-.1956.2938-.3083.476.1685-.0425.2105.0282.1967.1684.1956.0276.21-.1259.2658-.238.0138-.0287.0282-.085.0558-.0988.126-.1116.2658-.2093.4057-.3214.0281-.0282.0281-.085.0281-.1265 0-.0138-.0707-.0138-.1127-.0281.126-.1403.3084-.3773.4338-.5313.0702-.0425.1399-.0988.1399-.1408-.0139-.1541.084-.1955.1967-.2518-.0564-.0425-.0707-.0834-.0707-.0973z"/><path d="m17.7575 30.8803c-.0558.0978-.1117.1817-.1675.28l-.084-.0425c-.0558.3214-.252.6014-.4476.6572.0558.0282.1116.0563.1542.0425.0414-.0143.0691-.085.0972-.1264l.3775-.5462.1265-.2104-.0558-.0558zm-4.6583 6.1459c.0702 0 .1404.0138.2233.0138 0-.0558.0707-.0425.0707-.0978h.0425c0 .0702.0139.126.0139.1966h-.2935c-.0144-.0143-.0707-.0988-.0569-.1126zm-.1116-.6439c-.0426-.0425-.1117-.084-.1117-.1259-.0143-.0553.0277-.1249.0691-.195.0287.0977.0426.1817.0702.28-.0143.0132-.0282.0276-.0282.0414zm.3498-.8963c.0558.1413.1116.2954.168.4356-.0397.0132-.0773.032-.1117.0558-.0558-.1402-.126-.2943-.1818-.434.0378-.027.0807-.0462.126-.0563zm31.1438 13.3851c.0691-.0276.1531-.0425.2658-.0691-.1265.0972-.2243.1674-.3083.2513-.0144-.0138-.0282-.0281-.0426-.0281.0282-.0558.0564-.0978.0851-.1541zm-17.1966-29.5823c.0834-.0563.1542-.0982.2376-.154l.0277.0276c-.0851.1116-.1542.2231-.2526.3639-.0138-.0972-.0138-.1541-.0281-.2231-.0139 0 0 0 .0143-.0138zm4.099 7.0836c.126-.0563.252-.1116.4056-.1822-.0138.0839-.0138.1402-.0138.1965-.0451-.0163-.0924-.026-.1404-.0286-.084.0143-.2381.1264-.3083.1402-.0133 0 .0569-.1116.0569-.1259zm10.4947 11.872c.0276.1397.2934.2099.0276.3496.0425.0292.0835.0425.1255.0712 0 .0143-.0139.0425-.0277.0563-.0282.0133-.084.0414-.1116.0266-.0144 0-.0426-.0553-.0426-.0835 0-.1259.0144-.2518.0282-.4197z"/></g></g></svg>