<svg fill="none" height="64" viewBox="0 0 64 64" width="64" xmlns="http://www.w3.org/2000/svg" xmlns:xlink="http://www.w3.org/1999/xlink"><clipPath id="a"><path d="m9 12h45v40h-45z"/></clipPath><rect fill="#1c2128" height="64" rx="8" width="64"/><g clip-path="url(#a)"><path d="m31.5001 36.007c2.2152 0 4.0109-1.7941 4.0109-4.0072s-1.7957-4.0071-4.0109-4.0071c-2.2151 0-4.0108 1.794-4.0108 4.0071s1.7957 4.0072 4.0108 4.0072z" fill="#61dafb"/><g stroke="#61dafb"><path d="m31.5003 40.2095c11.8861 0 21.5217-3.6756 21.5217-8.2097s-9.6356-8.2098-21.5217-8.2098c-11.8862 0-21.52178 3.6757-21.52178 8.2098s9.63558 8.2097 21.52178 8.2097z"/><path d="m24.3834 36.1047c5.9431 10.2841 13.947 16.7832 17.8773 14.5162 3.9304-2.2671 2.2987-12.4418-3.6444-22.7259-5.943-10.2842-13.947-16.7833-17.8773-14.5162s-2.2987 12.4418 3.6444 22.7259z"/><path d="m24.3841 27.8952c-5.943 10.2841-7.5747 20.4588-3.6444 22.7259 3.9303 2.267 11.9343-4.2321 17.8774-14.5162 5.943-10.2841 7.5747-20.4588 3.6444-22.7259-3.9304-2.267-11.9343 4.2321-17.8774 14.5162z"/></g></g></svg>