<svg fill="none" height="64" viewBox="0 0 64 64" width="64" xmlns="http://www.w3.org/2000/svg" xmlns:xlink="http://www.w3.org/1999/xlink"><clipPath id="a"><path d="m9 12h50v39h-50z"/></clipPath><rect fill="#1c2128" height="64" rx="8" width="64"/><g clip-path="url(#a)"><path d="m52.0269 34.4047c-1.748.0102-3.2617.4468-4.5312 1.0969-.4688-.9648-.9375-1.8079-1.0156-2.4375-.0878-.7312-.1953-1.1782-.0878-2.0515.1073-.8736.5956-2.1126.5956-2.2142-.0099-.0914-.1076-.5383-1.1133-.5484-1.0058-.0102-1.875.2031-1.9727.4773-.0976.2742-.2929.9039-.4199 1.5539-.1758.9547-2.0117 4.3367-3.0566 6.1141-.3418-.6906-.6348-1.3-.6935-1.7876-.0878-.7312-.1953-1.1781-.0878-2.0515.1074-.8735.5957-2.1125.5957-2.214-.0098-.0914-.1074-.5383-1.1132-.5485-1.0059-.0101-1.875.2032-1.9726.4774-.0977.2742-.2051.9242-.42 1.5539-.2051.6297-2.6465 6.2765-3.2813 7.7492-.3223.7516-.6054 1.3508-.8105 1.757-.2051.4063-.0098.0305-.0293.0711-.1758.3453-.2735.5383-.2735.5383v.0103c-.1367.2539-.2832.4975-.3516.4975-.0489 0-.1465-.6805.0195-1.6147.3613-1.9603 1.2402-5.0172 1.2306-5.1289 0-.0508.1659-.5892-.5665-.8633-.7129-.2742-.9667.1828-1.0254.1828-.0586 0-.1075.1625-.1075.1625s.7911-3.4429-1.5136-3.4429c-1.4453 0-3.4375 1.6352-4.4239 3.1282-.625.3554-1.9531 1.1069-3.3593 1.9093-.5371.3047-1.0938.6297-1.6211.9242l-.1074-.122c-2.7929-3.0977-7.9589-5.2914-7.7441-9.4555.0781-1.5133.5859-5.5047 9.922-10.3391 7.6465-3.9609 13.7695-2.8742 14.8339-.457 1.5136 3.4531-3.2715 9.8719-11.2206 10.7961-3.0274.3555-4.6193-.8633-5.0196-1.3203-.4199-.4774-.4785-.4977-.6347-.4063-.2539.1422-.0977.5688 0 .8227.2343.6398 1.2109 1.7773 2.8711 2.3461 1.4549.4976 5.0097.7719 9.3066-.9547 4.8145-1.9398 8.5742-7.3227 7.4707-11.8219-1.123-4.5804-8.4277-6.0836-15.332-3.5343-4.1115 1.5234-8.5646 3.9-11.7677 7.0179-3.8086 3.6969-4.41407 6.9266-4.16016 8.2672.88877 4.7836 7.22656 7.9016 9.76566 10.207-.127.071-.2442.1421-.3516.2032-1.2695.6499-6.1035 3.2804-7.3145 6.0631-1.36714 3.1485.2149 5.4134 1.2696 5.7181 3.2617.9445 6.6015-.7515 8.4082-3.5445 1.7968-2.793 1.582-6.4188.7519-8.0742l-.0294-.061.9961-.6093c.6447-.3961 1.2794-.7618 1.836-1.0767-.3124.8836-.5371 1.9297-.6542 3.4531-.1367 1.7876.5664 4.1031 1.4941 5.0172.4102.396.8985.4063 1.2012.4063 1.0742 0 1.5625-.9244 2.0996-2.0313.6641-1.3508 1.25-2.9148 1.25-2.9148s-.7324 4.2351 1.2695 4.2351c.7324 0 1.4649-.9851 1.7969-1.493v.0102s.0195-.0305.0586-.1016c.041-.063.0801-.1273.1172-.1928v-.0203c.293-.5282.9472-1.7368 1.9238-3.7375 1.2597-2.5797 2.4707-5.8094 2.4707-5.8094s.1172.7922.4785 2.0922c.2148.7719.6835 1.6148 1.0449 2.4375-.293.4265-.4688.6704-.4688.6704l.0098.0101c-.2343.325-.4981.6705-.7714 1.0157-.9961 1.239-2.1875 2.6509-2.3438 3.0571-.1855.4772-.1465.8327.2149 1.1172.2636.2031.7324.2436 1.2304.2031.8985-.061 1.5235-.2945 1.836-.4368.4883-.1828 1.0449-.457 1.582-.8633.9766-.7514 1.5723-1.8179 1.5137-3.2397-.0293-.7821-.2735-1.5539-.5762-2.2852.0879-.132.1759-.2642.2637-.4062 1.543-2.3462 2.7344-4.9258 2.7344-4.9258s.1171.7922.4785 2.0922c.1854.6601.5566 1.3813.8886 2.0923-1.4453 1.2289-2.3535 2.6507-2.666 3.5851-.5761 1.7266-.1269 2.5086.7227 2.6914.3807.0813.9277-.1015 1.3378-.2844.5078-.1726 1.123-.4672 1.6895-.9039.9766-.7515 1.9141-1.7976 1.8653-3.2093-.0293-.65-.1953-1.2899-.42-1.8993 1.2305-.5281 2.8222-.8328 4.8438-.5789 4.3457.5282 5.2051 3.3516 5.0392 4.5297-.1661 1.1783-1.0743 1.8282-1.3771 2.0313-.3027.1929-.4004.2641-.3711.4062.0391.2134.1758.2032.4395.1626.3613-.061 2.2851-.9648 2.3632-3.1382.1172-2.7933-2.4316-5.8402-6.9531-5.8098zm-33.5156 11.7507c-1.4356 1.6352-3.457 2.2547-4.3164 1.7266-.9277-.5586-.5665-2.9656 1.2012-4.7023 1.0742-1.0563 2.4707-2.0313 3.3886-2.6305.2051-.132.5176-.3249.8887-.5586.0586-.0405.0977-.0609.0977-.0609.0683-.0407.1464-.0914.2246-.1422.6543 2.4781.0293 4.6515-1.4844 6.3679zm10.498-7.4242c-.498 1.2696-1.5527 4.5297-2.1875 4.3469-.5469-.1523-.8789-2.6203-.1075-5.0578.3906-1.229 1.2207-2.6914 1.709-3.2603.7911-.914 1.6504-1.2187 1.8653-.8429.2539.4876-.9668 4.0219-1.2793 4.8141zm8.6622 4.3063c-.2149.1118-.4102.1929-.4981.1321-.0684-.0406.0878-.193.0878-.193s1.084-1.2086 1.5137-1.7671c.2441-.3249.5371-.7007.8496-1.1274v.1219c.0001 1.4624-1.3476 2.4374-1.953 2.8335zm6.6795-1.5844c-.1562-.1219-.1366-.4977.3907-1.6758.2051-.4672.6738-1.2492 1.4843-1.9906.0977.3047.1564.5991.1465.8734-.0096 1.8282-1.2596 2.5086-2.0215 2.793z" fill="#cf649a"/></g></svg>