<svg fill="none" height="64" viewBox="0 0 64 64" width="64" xmlns="http://www.w3.org/2000/svg" xmlns:xlink="http://www.w3.org/1999/xlink"><clipPath id="a"><path d="m5 5h54v54h-54z"/></clipPath><rect fill="#1c2128" height="64" rx="8" width="64"/><g clip-path="url(#a)"><path d="m53.7266 5h-43.4532c-2.9124 0-5.2734 2.361-5.2734 5.2734v43.4532c0 2.9124 2.361 5.2734 5.2734 5.2734h43.4532c2.9124 0 5.2734-2.361 5.2734-5.2734v-43.4532c0-2.9124-2.361-5.2734-5.2734-5.2734z" fill="#3178c6"/><path d="m53.7266 5h-43.4532c-2.9124 0-5.2734 2.361-5.2734 5.2734v43.4532c0 2.9124 2.361 5.2734 5.2734 5.2734h43.4532c2.9124 0 5.2734-2.361 5.2734-5.2734v-43.4532c0-2.9124-2.361-5.2734-5.2734-5.2734z" fill="#3178c6"/><path clip-rule="evenodd" d="m38.4272 47.9705v5.2799c.8583.44 1.8734.7699 3.0454.9899 1.1719.22 2.4071.33 3.7056.33 1.2655 0 2.4677-.121 3.6066-.363 1.139-.242 2.1377-.6407 2.996-1.1962.8583-.5554 1.5378-1.2815 2.0385-2.178.5006-.8965.751-2.0046.751-3.3246 0-.957-.143-1.7957-.4291-2.5161-.2862-.7205-.6988-1.3612-1.238-1.9222s-1.1857-1.0643-1.9395-1.5098-1.6039-.8662-2.5502-1.2621c-.6933-.2861-1.315-.5637-1.8652-.8332-.5503-.2696-1.0179-.5446-1.4031-.825-.3852-.2805-.6823-.5775-.8913-.891-.2091-.3136-.3137-.6682-.3137-1.0643 0-.3629.0936-.6902.2807-.9817s.4512-.5417.7923-.7507c.3411-.2089.7592-.3713 1.2544-.4868.4953-.1154 1.0454-.1731 1.6507-.1731.4401 0 .905.033 1.3947.0989.4897.066.9821.1678 1.4774.3052.4952.1376.9766.3108 1.4443.5198s.8996.451 1.2957.726v-4.9334c-.8033-.308-1.6809-.5362-2.6327-.6847-.9519-.1485-2.0441-.2227-3.2765-.2227-1.2546 0-2.443.1348-3.5654.4042-1.1224.2695-2.11.6902-2.9629 1.2622-.8528.572-1.5268 1.3007-2.022 2.1862-.4951.8854-.7428 1.9441-.7428 3.1761 0 1.573.454 2.915 1.3618 4.026.9078 1.1109 2.2861 2.0513 4.1348 2.8214.7263.297 1.4031.5884 2.0303.8744s1.1692.583 1.6258.891c.4567.308.8171.6435 1.0813 1.0065.2641.3629.3961.7754.3961 1.2375 0 .3409-.0826.6571-.2476.9486-.1651.2916-.4155.5445-.7511.759s-.7538.3822-1.2544.5032c-.5008.1211-1.0867.1815-1.758.1815-1.1444 0-2.2778-.2007-3.4003-.6022-1.1224-.4014-2.1623-1.0037-3.1196-1.8067zm-8.8762-13.0087h6.7732v-4.3329h-18.8789v4.3329h6.7401v19.2921h5.3656z" fill="#fff" fill-rule="evenodd"/></g></svg>