<svg fill="none" height="64" viewBox="0 0 64 64" width="64" xmlns="http://www.w3.org/2000/svg" xmlns:xlink="http://www.w3.org/1999/xlink"><clipPath id="a"><path d="m9 10h46v42h-46z"/></clipPath><rect fill="#1c2128" height="64" rx="8" width="64"/><g clip-path="url(#a)"><path d="m43.5205 22.7092-10.997 15.8824c-.1166.1684-.2852.2946-.4803.3593-.195.0648-.4059.0642-.6006-.0009-.1946-.0653-.3624-.1921-.478-.3608-.1156-.169-.1726-.3708-.1623-.5748l.4401-8.7687-7.1052-1.5052c-.1518-.0322-.2933-.1011-.4119-.2006s-.2106-.2266-.268-.3701c-.0573-.1434-.0781-.2988-.0607-.4522.0175-.1535.0727-.3003.1608-.4276l10.9972-15.8825c.1166-.1685.2852-.2946.4802-.3593.1951-.06461.406-.06428.6007.001.1947.0653.3625.192.478.3609.1156.1689.1726.3707.1622.5748l-.4401 8.7689 7.1052 1.505c.1518.0322.2933.1011.412.2006s.2106.2266.2678.3701c.0575.1434.0782.2988.0608.4522-.0173.1535-.0727.3002-.1609.4275z" fill="#fcc72b"/><g fill="#729b1b"><path d="m32.0041 51.9169c-.2925.0003-.5822-.0569-.8524-.1687-.2702-.1119-.5157-.276-.7222-.4827l-10.3909-10.3787c-.4157-.4173-.6487-.9824-.648-1.5712.0008-.5888.2353-1.1535.6522-1.5697.4168-.4164.9819-.6507 1.5714-.6517.5895-.0006 1.1552.232 1.5732.6472l8.8167 8.8059 19.2073-19.185c.4187-.4115.9832-.641 1.5705-.6386.5876.0023 1.1503.2365 1.5653.6514.4154.4149.65.9769.6525 1.5636.0021.5868-.2277 1.1507-.6397 1.5689l-20.7817 20.7579c-.2065.207-.4519.3708-.7221.4827-.2701.1118-.5597.169-.8521.1687z"/><path d="m31.9955 51.9169c.2925.0003.5821-.0569.8524-.1687.2702-.1119.5156-.276.7222-.4827l10.3909-10.3787c.4157-.4173.6488-.9824.6479-1.5712-.0006-.5888-.2352-1.1535-.6521-1.5697-.4169-.4164-.982-.6507-1.5715-.6517-.5894-.0006-1.1551.232-1.5732.6472l-8.8166 8.8059-19.2073-19.185c-.4187-.4115-.9832-.641-1.5706-.6386-.5874.0023-1.1501.2365-1.56542.6514-.41535.4149-.64975.9769-.65216 1.5636-.00238.5868.22744 1.1507.63939 1.5689l20.78179 20.7579c.2066.207.452.3708.7221.4827.2702.1118.5598.169.8522.1687z" fill-opacity=".5"/></g></g></svg>