<svg fill="none" height="64" viewBox="0 0 64 64" width="64" xmlns="http://www.w3.org/2000/svg"><rect fill="#1c2128" height="64" rx="8" width="64"/><path d="m32.0003 8 21.2308 11.9986v24.0028l-21.2308 11.9986-21.2308-11.9986v-24.0028z" fill="#12171e"/><path d="m49.3253 42.9956-16.5958 9.3122v-7.2512l10.3404-5.6435zm1.1368-1.0197v-19.4715l-6.0704 3.48v12.5169zm-35.7862 1.0197 16.5958 9.3122v-7.2512l-10.3458-5.6435zm-1.1368-1.0197v-19.4715l6.0704 3.48v12.5169zm.7125-20.7339 17.0201-9.5496v7.0084l-10.9061 5.951-.087.0485zm35.498 0-17.0201-9.5496v7.0084l10.9061 5.9456.087.0485z" fill="#8ed6fb"/><path d="m31.2623 43.0769-10.3385-5.4798v-10.8482l10.3385 5.7507zm1.4769 0 10.3385-5.4745v-10.8535l-10.3385 5.7507zm-11.1155-17.5811 10.3771-5.4958 10.377 5.4958-10.377 5.7719z" fill="#1c78c0"/></svg>