<svg fill="none" height="64" viewBox="0 0 64 64" width="64" xmlns="http://www.w3.org/2000/svg"><rect fill="#1c2128" height="64" rx="8" width="64"/><g fill="#fff"><path d="m13.1279 31.9991c0 7.4703 4.3414 13.926 10.6366 16.9853l-9.0026-24.666c-1.0472 2.3471-1.634 4.9446-1.634 7.6807z"/><path d="m44.7407 31.0467c0-2.3324-.8378-3.9477-1.5563-5.205-.9567-1.5546-1.8534-2.8711-1.8534-4.4257 0-1.7349 1.3158-3.3498 3.1691-3.3498.0837 0 .1631.0104.2446.0151-3.3577-3.0762-7.8312-4.9543-12.7446-4.9543-6.5933 0-12.3941 3.3828-15.7687 8.5066.4428.0133.8601.0227 1.2146.0227 1.974 0 5.0297-.2396 5.0297-.2396 1.0174-.0599 1.1373 1.4343.121 1.5546 0 0-1.0224.1203-2.16.1799l6.8727 20.4426 4.1301-12.3869-2.9404-8.0564c-1.0163-.0596-1.9791-.1799-1.9791-.1799-1.017-.0596-.8977-1.6146.1193-1.5546 0 0 3.1167.2395 4.9712.2395 1.9737 0 5.0297-.2395 5.0297-.2395 1.0181-.06 1.1377 1.4343.121 1.5546 0 0-1.0245.1203-2.16.1799l6.8203 20.2878 1.8824-6.2906c.8159-2.6104 1.4368-4.4853 1.4368-6.101z"/><path d="m32.3314 33.6499-5.6625 16.4542c1.6908.497 3.4788.7689 5.3314.7689 2.1978 0 4.3055-.38 6.2673-1.0698-.0506-.0808-.0966-.1666-.1343-.26z"/><path d="m48.561 22.9448c.0812.6012.1271 1.2465.1271 1.9407 0 1.9151-.3576 4.068-1.435 6.7599l-5.7648 16.6676c5.6108-3.2719 9.3847-9.3506 9.3847-16.3131.0004-3.2812-.8378-6.3668-2.312-9.0551z"/><path d="m32.001 10c-12.1305 0-22 9.8688-22 21.9993 0 12.1319 9.8695 22.0004 22 22.0004 12.1301 0 22.0011-9.8685 22.0011-22.0004-.0004-12.1305-9.871-21.9993-22.0011-21.9993zm0 42.9913c-11.5742 0-20.9913-9.4171-20.9913-20.992 0-11.5742 9.4167-20.9906 20.9913-20.9906 11.5739 0 20.9902 9.4164 20.9902 20.9906 0 11.5749-9.4163 20.992-20.9902 20.992z"/></g></svg>