<svg fill="none" height="64" viewBox="0 0 64 64" width="64" xmlns="http://www.w3.org/2000/svg"><rect fill="#edf1f6" height="64" rx="8" width="64"/><path d="m40.0742 36.0088h14.9256v2.1953h-14.9256zm8.7975 4.3922 4.469 6.5891h-2.5238l-3.2693-4.2941-3.2904 4.2941h-2.5255l4.4707-6.5891z" fill="#ce3d40"/><path d="m18.7298 37.6059c-.5486.2106-1.1162.3677-1.6951.4691-.5938.1028-1.1954.1537-1.798.152-.8098.0531-1.6219-.0589-2.387-.3292s-1.4674-.6933-2.0641-1.2433c-.5521-.6234-.97408-1.3508-1.24104-2.1396s-.37352-1.6231-.31343-2.4536c-.01185-.8979.14049-1.7903.44952-2.6334.27804-.7535.70815-1.4418 1.26355-2.022.5488-.5652 1.2112-1.0076 1.9435-1.2979.7922-.3129 1.6379-.4683 2.4896-.4577.5938-.0031 1.1869.0417 1.7735.1341.541.0869 1.0706.2338 1.579.4381v2.0236c-.5084-.2697-1.0496-.4724-1.6101-.6032-.5554-.1271-1.1236-.1908-1.6934-.1896-.5282-.0028-1.0513.1035-1.5365.3122-.4813.2059-.914.5105-1.2701.8942-.3789.4138-.6718.8989-.8615 1.427-.2195.6093-.327 1.2534-.3171 1.901-.094 1.2053.2927 2.3987 1.0756 3.3199.3942.3792.8626.673 1.3756.8628.513.1899 1.0598.2718 1.6059.2406.5626.002 1.1235-.0633 1.6706-.1946.5421-.1311 1.0663-.3276 1.561-.5852zm8.3578-15.027h-3.6076v-1.7425h5.744v15.4536h3.6321v1.767h-9.7782v-1.767h4.0097z" fill="#50b2dd"/></svg>