<svg fill="none" height="64" viewBox="0 0 64 64" width="64" xmlns="http://www.w3.org/2000/svg" xmlns:xlink="http://www.w3.org/1999/xlink"><linearGradient id="a" gradientUnits="userSpaceOnUse" x1="55.4029" x2="35.5647" y1="31.6409" y2="44.464"><stop offset=".0814251" stop-color="#69d3a7"/><stop offset="1" stop-color="#69d3a7" stop-opacity="0"/></linearGradient><linearGradient id="b" gradientUnits="userSpaceOnUse" x1="33.9187" x2="13.0075" y1="51.2789" y2="11.2107"><stop offset=".0613291"/><stop offset=".138" stop-color="#8aa098"/><stop offset=".2374" stop-color="#8cc3ac"/><stop offset=".3427" stop-color="#80ccac"/><stop offset=".4536" stop-color="#86dbb8"/><stop offset=".573" stop-color="#76d7ae"/><stop offset=".7067" stop-color="#6cd4a9"/><stop offset=".8842" stop-color="#69d3a7"/></linearGradient><clipPath id="c"><path d="m9 9h45v45h-45z"/></clipPath><rect fill="#edf1f6" height="64" rx="8" width="64"/><g clip-path="url(#c)"><path d="m24.9071 26.9178c1.7943 0 3.2523.9596 4 2.6259l.056.1311 3.0094-1.0251-.0608-.1545c-1.1635-2.8458-3.8504-4.6104-7.0046-4.6104-2.2197 0-4.0234.7114-5.5141 2.1765-1.4813 1.4557-2.2289 3.2858-2.2289 5.4389 0 2.1391.7523 3.9599 2.2289 5.4109 1.4907 1.465 3.2944 2.1765 5.5141 2.1765 3.1542 0 5.8364-1.7693 7.0046-4.6105l.0608-.1544-3.014-1.0251-.0514.1357c-.6729 1.643-2.1683 2.6212-4 2.6212-1.2477 0-2.3038-.4353-3.1356-1.2965-.8458-.8706-1.271-1.9706-1.271-3.2578 0-1.2965.4159-2.3731 1.271-3.2858.8365-.8613 1.8879-1.2966 3.1356-1.2966z" fill="#000"/><path d="m37.9734 52.7366-.8972-2.9628c8.0934-2.4621 13.5327-9.806 13.5327-18.2734 0-2.3356-.4159-4.6198-1.2383-6.7823l2.8878-1.0999c.958 2.5182 1.4439 5.1674 1.4439 7.8869-.0046 9.8341-6.3224 18.367-15.7289 21.2315z" fill="url(#a)"/><path d="m49.7715 25.9022c-2.4719-8.0789-9.8131-13.5038-18.271-13.5038-1.1495 0-2.2991.103-3.4206.3043l-.5467-3.04716c1.2991-.23404 2.6355-.35574 3.9673-.35574 9.8224 0 18.3505 6.3049 21.2243 15.6896z" fill="#69d3a7"/><path d="m43.7527 24.1655-4.285 10.8779-4.3178-10.8779h-3.5327l6.0561 14.8471-4.4113 10.7188 3.0888.6178 10.7383-26.1837z" fill="#000"/><path d="m33.8187 48.3832-.6495 1.5774c-.1496.3604-.4907.6085-.8739.6225-.2663.0094-.528.0187-.799.0187-7.9813 0-15.1402-5.0364-17.9019-12.4178-.042-.1123-.0841-.2247-.1215-.337-.0093-.0281-.0187-.0608-.0327-.0889-.0327-.103-.0701-.2013-.1028-.3043-.014-.0374-.0234-.0749-.0374-.117-.028-.0936-.0607-.1825-.0888-.2762-.014-.0468-.028-.0936-.042-.1404-.5187-1.7505-.7804-3.5713-.7804-5.4249 0-9.8668 7.3972-18.0393 17.2009-19.0082l-.3037-3.07987c-11.3879 1.12807-19.98131 10.62517-19.98131 22.09277 0 2.0876.28972 4.1424.85511 6.127v.0047c.0374.1357.0795.2668.1215.4025.0047.0187.0094.0375.0187.0562.0374.1264.0795.2528.1215.3791.0094.0234.014.0422.0234.0656.042.1263.0841.2527.1308.3791.0047.0187.014.0328.0187.0515.0421.1217.0888.2434.1308.3604 3.2243 8.5422 11.5187 14.365 20.7664 14.3697h.0047c.3084 0 .6168-.0047.9252-.0188 1.5841-.0655 3-1.0625 3.6075-2.5369l.8785-2.1391z" fill="url(#b)"/></g></svg>