<svg fill="none" height="64" viewBox="0 0 64 64" width="64" xmlns="http://www.w3.org/2000/svg"><rect fill="#edf1f6" height="64" rx="8" width="64"/><path d="m57.2353 28.7911c-1.1524-.7531-4.18-1.0744-6.3808-.4988-.1182-2.1276-1.2498-3.9207-3.3176-5.4854l-.7654-.4984-.5103.7481c-1.0027 1.477-1.4256 3.4459-1.2759 5.2357.1181 1.1029.5129 2.342 1.2759 3.2413-2.8644 1.6128-5.5056 1.2466-17.2008 1.2466h-18.0564c-.0524 2.5632.3719 7.4926 3.602 11.5056.3571.4435.7479.8722 1.1729 1.2852 2.6264 2.5524 6.5946 4.4241 12.5283 4.429 9.0525.0082 16.808-4.7409 21.5261-16.2219 1.5523.0242 5.6507.27 7.6564-3.491.0491-.0632.5103-.9969.5103-.9969l-.7647-.4985zm-34.4472-2.3436h-5.0777v4.9274h5.0777zm6.5587 0h-5.0773v4.9274h5.0773zm6.5597 0h-5.0773v4.9274h5.0773zm6.5601 0h-5.0777v4.9274h5.0777zm-26.2386 0h-5.0773v4.9274h5.0773zm6.5601-6.2234h-5.0777v4.9274h5.0777zm6.5587 0h-5.0773v4.9274h5.0773zm6.5597 0h-5.0773v4.9274h5.0773zm0-6.2241h-5.0773v4.9274h5.0773z" fill="#1d63ed"/></svg>