<svg fill="none" height="64" viewBox="0 0 64 64" width="64" xmlns="http://www.w3.org/2000/svg"><rect fill="#edf1f6" height="64" rx="8" width="64"/><path d="m22.2407 26.0977 9.3792-5.4155c.2347-.1355.524-.1355.7587 0l9.3794 5.4155c.2345.1356.3794.386.3794.6571v10.831c0 .2709-.1449.5216-.3794.6573l-9.3794 5.4155c-.2347.1356-.524.1356-.7587 0l-9.3792-5.4155c-.2347-.1355-.3794-.3862-.3794-.6573v-10.831c.0002-.2711.1449-.5215.3794-.6571z" fill="#8080f2"/><path d="m56.3859 31.031-11.2063-19.4974c-.4071-.705-1.1591-1.225-1.973-1.225h-22.413c-.8142 0-1.5663.52-1.9734 1.225l-11.20631 19.4544c-.40706.7051-.40706 1.5951 0 2.3002l11.20631 19.3377c.4071.7049 1.1592 1.0654 1.9734 1.0654h22.4128c.8139 0 1.5661-.3496 1.973-1.0548l11.2063-19.3692c.4075-.7048.4075-1.5313.0002-2.2363zm-9.2794 9.3757c0 .2866-.1726.5517-.4211.6953l-14.2744 8.2363c-.2482.1433-.5593.1433-.8075 0l-14.2855-8.2363c-.2482-.1436-.422-.4085-.422-.6953v-16.4728c0-.2869.1712-.5518.4197-.6953l14.2738-8.2364c.2483-.1435.5589-.1435.8072 0l14.2864 8.2364c.2485.1435.4234.4084.4234.6953z" fill="#4b32c3"/></svg>