<svg fill="none" height="64" viewBox="0 0 64 64" width="64" xmlns="http://www.w3.org/2000/svg"><rect fill="#edf1f6" height="64" rx="8" width="64"/><path d="m40.9473 13.5263v34.7369c0 3.8898 2.6809 6.0526 5.5263 6.0526 2.6316 0 5.5263-1.8421 5.5263-6.0526v-34.4737c0-3.5609-2.6316-5.7895-5.5263-5.7895-2.8948 0-5.5263 2.4589-5.5263 5.5263z" fill="#f8ab00"/><g fill="#e37300"><path d="m26.4746 31.1577v17.1052c0 3.8898 2.6809 6.0527 5.5263 6.0527 2.6316 0 5.5263-1.8422 5.5263-6.0527v-16.8421c0-3.5608-2.6315-5.7895-5.5263-5.7895-2.8947 0-5.5263 2.4589-5.5263 5.5264z"/><path d="m23.0526 48.7895c0 3.051-2.4753 5.5263-5.5263 5.5263s-5.5263-2.4753-5.5263-5.5263 2.4753-5.5263 5.5263-5.5263 5.5263 2.4753 5.5263 5.5263z"/></g></svg>