<svg fill="none" height="64" viewBox="0 0 64 64" width="64" xmlns="http://www.w3.org/2000/svg" xmlns:xlink="http://www.w3.org/1999/xlink"><mask id="a" height="45" maskUnits="userSpaceOnUse" width="45" x="9" y="9"><path d="m9.48438 9.48389h44.51602v44.51601h-44.51602z" fill="#fff"/></mask><rect fill="#edf1f6" height="64" rx="8" width="64"/><g mask="url(#a)"><path d="m53.1624 29.76-19.4367-19.4352c-.2663-.2665-.5824-.47781-.9304-.62201s-.7209-.21841-1.0976-.21841-.7496.07421-1.0976.21841-.6641.35551-.9304.62201l-4.0346 4.0365 5.1189 5.1189c.6018-.2044 1.2488-.2363 1.8678-.0921.619.1441 1.1853.4587 1.6348.9079.4521.4525.7677 1.0232.9107 1.6466.143.6235.1076 1.2746-.1021 1.8789l4.9353 4.9338c.6044-.21 1.2558-.2453 1.8794-.1021.6236.1433 1.1943.4594 1.6465.9121.3168.3167.5681.6927.7395 1.1066.1714.4138.2597.8573.2597 1.3053 0 .4479-.0883.8915-.2597 1.3053-.1714.4139-.4227.7899-.7395 1.1066-.6404.6398-1.5086.9991-2.4138.9991-.9053 0-1.7735-.3593-2.4139-.9991-.4757-.4765-.7999-1.0832-.9316-1.7435s-.0652-1.3449.1913-1.9675l-4.6024-4.601v12.1102c.4858.24.9074.5922 1.23 1.0276.3225.4353.5367.9413.6248 1.4759.088.5346.0475 1.0825-.1184 1.5983-.1658.5158-.4521.9847-.8353 1.3678-.3167.3168-.6927.5681-1.1065.7395-.4139.1714-.8574.2597-1.3054.2597-.4479 0-.8915-.0883-1.3053-.2597-.4139-.1714-.7899-.4227-1.1066-.7395-.3168-.3167-.5682-.6928-.7397-1.1066-.1714-.4139-.2597-.8575-.2597-1.3055s.0883-.8917.2597-1.3055c.1715-.4139.4229-.79.7397-1.1067.3192-.3198.6986-.5732 1.1162-.7456v-12.2216c-.4159-.1713-.7939-.4231-1.1123-.741-.3183-.3178-.5707-.6955-.7427-1.1111-.172-.4157-.2601-.8613-.2593-1.3112.0007-.4498.0903-.8951.2637-1.3102l-5.0472-5.0481-13.3286 13.3252c-.53707.5381-.83872 1.2674-.83872 2.0277s.30165 1.4896.83872 2.0277l19.4377 19.4377c.5381.537 1.2673.8385 2.0275.8385s1.4894-.3015 2.0275-.8385l19.3466-19.3466c.5371-.5382.8387-1.2674.8387-2.0277 0-.7604-.3016-1.4896-.8387-2.0278z" fill="#f03c2e"/></g></svg>