<svg fill="none" height="64" viewBox="0 0 64 64" width="64" xmlns="http://www.w3.org/2000/svg"><rect fill="#edf1f6" height="64" rx="8" width="64"/><path clip-rule="evenodd" d="m32.0174 12c-11.6221 0-21.0174 9.1666-21.0174 20.507 0 9.065 6.0199 16.7383 14.3711 19.4541 1.0441.2042 1.4266-.4413 1.4266-.9842 0-.4754-.0345-2.105-.0345-3.8029-5.8465 1.2225-7.064-2.4445-7.064-2.4445-.9395-2.3767-2.3317-2.9875-2.3317-2.9875-1.9136-1.2563.1394-1.2563.1394-1.2563 2.1226.1358 3.2364 2.105 3.2364 2.105 1.8788 3.1233 4.9061 2.2408 6.1241 1.6975.1738-1.3242.7309-2.2408 1.3224-2.75-4.663-.4754-9.5691-2.2408-9.5691-10.1179 0-2.2408.8346-4.0741 2.1571-5.4999-.2087-.5092-.9396-2.6146.209-5.4325 0 0 1.7747-.5433 5.776 2.105 1.7131-.4489 3.4799-.6773 5.2546-.6792 1.7746 0 3.5836.2379 5.2541.6792 4.0018-2.6483 5.7764-2.105 5.7764-2.105 1.1487 2.8179.4173 4.9233.2087 5.4325 1.3573 1.4258 2.1575 3.2591 2.1575 5.4999 0 7.8771-4.9061 9.6083-9.604 10.1179.7658.645 1.4266 1.8671 1.4266 3.8025 0 2.75-.0345 4.9571-.0345 5.6358 0 .5433.3829 1.1888 1.4266.985 8.3512-2.7167 14.3711-10.3895 14.3711-19.4545.0344-11.3404-9.3953-20.507-20.9825-20.507z" fill="#000" fill-rule="evenodd"/></svg>