<svg fill="none" height="64" viewBox="0 0 64 64" width="64" xmlns="http://www.w3.org/2000/svg" xmlns:xlink="http://www.w3.org/1999/xlink"><clipPath id="a"><path d="m18 2h27v59.7086h-27z"/></clipPath><rect fill="#edf1f6" height="64" rx="8" width="64"/><g clip-path="url(#a)" clip-rule="evenodd" fill="#da4648" fill-rule="evenodd"><path d="m31.3807 49.0169c-3.4828 0-6.174-.5231-7.4682-.835-.8849-.2132-1.5956-.4338-2.1354-.6605l1.726 2.9489.6751 9.2138c0 1.0329 3.2814 1.8702 7.3291 1.8702 4.0476 0 7.329-.8373 7.329-1.8702l.5346-9.3141 1.6331-2.8572c-.5422.2297-1.2591.4533-2.1552.6691-1.2942.3119-3.9854.835-7.4681.835zm9.6793-29.982c-2.5562.357-5.9488.5537-9.5527.5537-3.604 0-6.9966-.1967-9.5528-.5537-1.2662-.1768-2.268-.3854-2.9776-.6196-.1692-.056-.456-.1515-.732-.3036l1.5837 14.5758c.0736-.251.1555-.5017.2464-.7515.1859-.512.401-1.0125.6451-1.5014.2442-.4888.51-.9509.7975-1.3861.2872-.4351.5932-.8358.9174-1.2019.3243-.3659.6569-.6807.9985-.9445.3414-.2635.6861-.4697 1.034-.6181.3481-.1484.6928-.2228 1.0342-.2228.3933 0 .7737.1076 1.1412.3226.3674.215.7108.5632 1.0308 1.0444.0735.1075.1201.2163.1393.3263.0196.1102.0292.2139.0292.3111 0 .2303-.0551.4122-.1652.5452-.1102.1331-.241.1996-.3922.1996-.1386 0-.2671-.0729-.3859-.2187-.119-.146-.2518-.3546-.3988-.626-.1384-.2457-.2907-.4235-.457-.5336-.1665-.11-.3469-.1651-.5414-.1651-.3026 0-.6256.1254-.9692.3763-.3438.2507-.6841.5822-1.0211.9943-.3373.4123-.6603.8832-.9694 1.4131-.309.5299-.5826 1.0725-.8203 1.6279-.2378.5558-.4266 1.1036-.5672 1.6436-.1405.54-.2107 1.0251-.2107 1.4551 0 .1435.0099.2908.0291.4416.0196.1512.0562.288.1104.411.0538.1229.1274.2238.2203.303.093.0796.2107.1191.3533.1191.16 0 .3414-.0537.5448-.1612.203-.1073.4138-.2483.6319-.4222.2183-.1741.4377-.3712.6582-.5915.2206-.22.4258-.4426.6159-.668.1901-.2251.3587-.4416.5056-.6488.147-.2074.2572-.3879.3308-.5416l.6029-1.8046c.0735-.1944.1696-.3327.2886-.4146.1188-.0819.241-.123.3664-.123.0603 0 .1208.0104.1814.0307.0607.0206.1145.0526.1622.096.0475.0437.0853.0998.1134.1691.0281.069.0421.1497.0421.2418 0 .2457-.0216.4759-.0648.6912-.0432.2152-.0983.4249-.1654.6298-.0669.2045-.1416.4107-.2237.618-.0821.2074-.1622.4237-.2398.6491-.0172.0256-.0486.106-.0941.2416-.0453.1359-.1003.3063-.1652.5109-.0648.2048-.1352.4338-.2108.6873-.0757.2535-.1533.5119-.2333.7756s-.1567.5223-.2301.7757c-.0736.2534-.1397.4825-.1978.6874-.0584.2046-.107.376-.146.5144-.0389.1382-.0626.22-.0713.2459-.0216.0816-.0563.1727-.1037.2723-.0475.0998-.1036.1947-.1686.2842-.0648.0895-.1361.164-.214.2226-.0777.0588-.1577.0885-.2399.0885-.1382 0-.2388-.0462-.3013-.1381-.0628-.0923-.094-.2612-.094-.5069v-.1075c0-.0359.002-.0745.0063-.1151.0042-.0821.0368-.2357.0974-.4612.0605-.2251.1328-.4796.2172-.7638.0843-.2842.1752-.5786.2724-.8833.097-.3046.1846-.577.2625-.8177-.2294.2561-.4776.5107-.7456.7642-.2682.2533-.5426.4812-.8234.6833-.2811.2023-.5643.3673-.8494.4954-.2853.1279-.5597.1921-.8234.1921-.3026 0-.563-.0667-.7815-.1998-.0393-.0242-.0765-.0512-.1135-.0781l.8813 9.2399c.2294.575 4.5485 1.9878 10.2431 1.9878 5.6974 0 10.0181-1.4142 10.2435-1.9887l1.2659-10.9855c-.1047.0961-.2067.1901-.3042.2811-.3632.3377-.7059.6283-1.0279.8714-.3218.2432-.6364.4316-.9433.5644-.307.1333-.6355.1998-.9855.1998-.3285 0-.5826-.0718-.7619-.2151-.1793-.1432-.2691-.3402-.2691-.5912v-.0576c0-.0179.0022-.0398.0067-.0654.0171-.1533.0844-.3303.201-.5298.1166-.1998.257-.407.4212-.6219.1643-.2151.3393-.4328.5252-.653.1859-.22.3578-.4286.5156-.6259.1577-.1967.2884-.3772.3921-.5412.1039-.1639.1558-.2969.1558-.3993 0-.0614-.0218-.11-.0648-.1461-.0434-.0355-.1148-.0537-.214-.0537-.173 0-.3513.0449-.5348.1344-.1839.0895-.3656.2101-.5449.361-.1793.151-.3544.324-.5252.5184-.1705.1946-.3305.3968-.4797.6065-.1492.2101-.2851.4213-.4084.6338-.1232.2125-.228.4082-.3146.5872-.0259.0565-.0626.1359-.1103.2381-.0475.1024-.0993.2178-.1555.3457-.0563.1281-.1157.26-.1783.3953-.0627.1359-.1199.264-.1718.3842-.0518.1203-.0982.2275-.1391.3224-.0414.0946-.0705.16-.0878.196-.0216.046-.0573.1328-.1069.2609-.0497.128-.1071.2778-.1718.4493-.0648.1714-.1329.3519-.2044.5415-.071.1892-.1382.3686-.2009.5375-.0628.1688-.1178.3174-.1652.4455-.0475.1277-.0781.2149-.091.261-.0431.1332-.094.2583-.1522.3765-.0584.1175-.1252.2212-.201.311-.0756.0895-.162.1611-.2593.2148-.0974.054-.2065.0807-.3273.0807-.1558 0-.2842-.0374-.386-.1114-.1014-.0742-.1523-.2165-.1523-.4262 0-.1024.013-.2073.0389-.3147.0259-.1076.0585-.214.0973-.3188.0389-.1052.079-.2073.1201-.3072.0409-.0999.0788-.1957.1132-.288.2336-.5119.4714-1.0251.7133-1.5398.2419-.5144.4743-1.0237.697-1.528.0463-.1052.0889-.2083.1341-.3129-.0136.0133-.0268.0271-.0401.0401-.2811.2715-.5608.5107-.8396.718-.279.2074-.5556.3725-.8298.4955-.2746.1226-.5415.1842-.801.1842-.1771 0-.3251-.0281-.4439-.0844-.1189-.0565-.2138-.1333-.2853-.2304-.0714-.0972-.1223-.2124-.1526-.3456-.0101-.0455-.0165-.093-.0231-.1404-.0759.0591-.1524.1167-.2296.1713-.268.1891-.5316.3416-.791.4567-.2592.1152-.4928.1728-.7.1728-.2077 0-.3761-.0691-.506-.2074-.1296-.1381-.1943-.3737-.1943-.7063 0-.2358.0346-.5096.1035-.8217-.1123.1996-.2527.4019-.4212.6065-.1688.2049-.361.3917-.577.5608-.2165.1688-.4584.3058-.7262.4107-.2682.1049-.5599.1574-.8753.1574-.1427 0-.2799-.0179-.4118-.0537-.1319-.036-.2474-.0974-.3468-.1844-.0995-.0869-.1793-.2035-.2399-.3493-.0605-.1458-.0907-.3291-.0907-.5491 0-.0051.0086-.0832.0259-.2344.0173-.151.0723-.3891.1654-.7141.0929-.325.2366-.7462.4309-1.2633.1947-.517.4692-1.1442.8236-1.8812.0907-.1947.1956-.3342.3142-.4186.1192-.0846.2475-.1268.3858-.1268.0606 0 .1232.0091.188.0268.0651.0181.1255.0461.1818.0846.056.0384.1015.0871.1362.1459.0343.0588.0519.1265.0519.2034 0 .0512-.0067.1001-.0196.1458-.0218.0874-.0682.201-.1392.3417-.0714.141-.1547.3022-.2499.484-.0949.1817-.1955.3775-.3014.5877-.106.2096-.2042.4272-.295.6526-.0907.2254-.1686.4544-.2334.6873-.0648.233-.1017.4597-.1102.6797 0 .0921.0215.1765.0649.2533.0432.0768.1146.1151.2139.1151.2808 0 .5488-.0923.804-.2763.2549-.1844.4903-.4135.7067-.6874.2161-.2738.4116-.5684.5867-.8833.1751-.3148.3209-.6026.4376-.8638.0822-.1739.1546-.361.2172-.5605.0626-.1998.1308-.3839.2043-.553.0736-.1691.1576-.3098.2528-.4224.0949-.1125.214-.169.3564-.169.1559 0 .2788.059.3699.1767.0907.1179.1359.2586.1359.4223 0 .0921-.029.2191-.0875.3803s-.1319.3456-.2205.553c-.0887.2073-.1848.4287-.2883.664-.1037.2358-.2001.4749-.2884.7182-.089.2432-.1621.4812-.2206.7142-.0585.2328-.0875.4493-.0875.6488 0 .1843.095.2766.2851.2766.1341 0 .3004-.0461.4993-.1384s.4075-.2214.6256-.3879c.0545-.0415.1094-.0848.1639-.1303.0609-.2514.1324-.4837.2155-.6949.1512-.3996.3047-.7962.4604-1.1904.1555-.3942.2981-.7552.428-1.0829l1.9644-4.9532c.0777-.1996.1826-.3405.3142-.4224.1321-.0818.2649-.1228.399-.1228.1338 0 .2558.0435.3661.1305.1104.0872.1656.2279.1656.4224 0 .0921-.0185.1895-.0552.2918-.0368.1024-.0832.2124-.1395.3302-.1079.2408-.2365.535-.3857.8831-.1492.3482-.3092.7271-.4799 1.1366-.1708.4096-.3459.8358-.5252 1.2786-.1792.4429-.3543.8742-.5251 1.294-.1705.4199-.3307.8177-.4799 1.1941-.149.3763-.2774.7028-.3857.9791-.0475.1178-.0939.2549-.1392.4111-.0455.1559-.068.2956-.068.4185 0 .0766.013.138.0389.1841s.0756.0693.149.0693c.0907 0 .2042-.032.3404-.0961.1361-.0639.2829-.1486.4408-.2535.158-.1048.3221-.2251.4926-.3609.171-.1356.3405-.2763.509-.4223.1688-.1461.3297-.2919.4831-.4379.1533-.1458.2908-.2801.4119-.4031.0284-.0295.0623-.0503.0997-.0659.073-.218.1396-.4315.1984-.6404.0346-.0923.0822-.2227.1427-.3918.0603-.169.1296-.3354.2074-.4992.0777-.1637.1655-.306.2624-.4262.0974-.1201.2023-.1805.3146-.1805.1729 0 .2984.0398.3761.119.0778.0796.1167.1959.1167.3496 0 .0307-.0043.0793-.013.1458-.0088.0666-.0193.1372-.0322.2114-.013.074-.0272.1445-.0423.2112-.0153.0665-.0292.1151-.0421.1458.1597-.1742.3326-.3469.5185-.5183.186-.1715.3782-.3267.5771-.4647.199-.1384.402-.2507.6097-.3382.2072-.0867.4149-.1303.6222-.1303.1426 0 .2842.0205.4246.0615.1404.0409.266.1011.376.1804.1103.0796.2001.1793.2691.2996.0691.1202.1037.2597.1037.4184 0 .2102-.0528.434-.1588.6721-.1058.2381-.2387.4774-.3987.7177-.1599.2409-.3329.4749-.5185.7028-.1859.2279-.3598.4351-.522.6219-.1621.1872-.2983.3456-.4087.4762-.1098.1308-.1675.219-.1717.2652 0 .0614.0196.1112.0585.1498.0389.0382.1037.0575.1944.0575.0734 0 .1817-.041.3241-.1229.1426-.082.3427-.2239.5998-.4262.257-.2022.5836-.4736.9791-.8141.2712-.2333.5887-.5115.9465-.8279l1.7147-15.8805c-.2761.1524-.5634.2481-.7328.3041-.7094.2342-1.7112.4428-2.9776.6196zm-9.5629-3.7678c-7.4132 0-13.4229.8289-13.4229 1.8514 0 1.0226 6.0097 1.8514 13.4229 1.8514s13.4228-.8288 13.4228-1.8514c0-1.0225-6.0096-1.8514-13.4228-1.8514zm5.3596 2.3925c0 .2399-.7142.4345-1.5954.4345-.8809 0-1.5951-.1946-1.5951-.4345 0-.2401.7142-.4346 1.5951-.4346.8812 0 1.5954.1945 1.5954.4346z"/><path d="m33.9886 17.4676c-.008.0126-.012.0255-.012.0386 0 .1553.575.2811 1.2841.2811.7092 0 1.2841-.1258 1.2841-.2811l1.6772-6.8007 6.6703-7.04229c.0022-.00214.0043-.00437.0063-.00667.1412-.15968-.1453-.65386-.6207-1.07768-.4753-.42383-.9887-.56731-1.1482-.40593-.0012.00121-.0023.00243-.0035.00367l-7.1168 7.48876z"/></g></svg>