<svg fill="none" height="64" viewBox="0 0 64 64" width="64" xmlns="http://www.w3.org/2000/svg" xmlns:xlink="http://www.w3.org/1999/xlink"><clipPath id="a"><rect height="54" rx="4" width="54" x="5" y="5"/></clipPath><rect fill="#edf1f6" height="64" rx="8" width="64"/><g clip-path="url(#a)"><path d="m59 5h-54v54h54z" fill="#f7df1e"/><path d="m41.2748 47.1877c1.0877 1.776 2.5028 3.0815 5.0057 3.0815 2.1025 0 3.4457-1.0509 3.4457-2.5029 0-1.74-1.38-2.3563-3.6943-3.3686l-1.2686-.5442c-3.6617-1.56-6.0943-3.5143-6.0943-7.6458 0-3.8057 2.8998-6.7028 7.4315-6.7028 3.2263 0 5.5457 1.1228 7.2171 4.0628l-3.9514 2.5372c-.87-1.56-1.8086-2.1746-3.2657-2.1746-1.4863 0-2.4283.9429-2.4283 2.1746 0 1.5223.9428 2.1386 3.12 3.0814l1.2685.5434c4.3115 1.8489 6.7458 3.7338 6.7458 7.9715 0 4.5685-3.5889 7.0714-8.4086 7.0714-4.7126 0-7.7572-2.2457-9.2469-5.1891zm-17.9255.4398c.7972 1.4142 1.5223 2.61 3.2657 2.61 1.6672 0 2.7189-.6523 2.7189-3.1886v-17.2543h5.0743v17.3229c0 5.2542-3.0806 7.6457-7.5772 7.6457-4.0628 0-6.4157-2.1026-7.6122-4.635z" fill="#000"/></g></svg>