<svg fill="none" height="64" viewBox="0 0 64 64" width="64" xmlns="http://www.w3.org/2000/svg" xmlns:xlink="http://www.w3.org/1999/xlink"><clipPath id="a"><path d="m6 15h52v34h-52z"/></clipPath><rect fill="#edf1f6" height="64" rx="8" width="64"/><g clip-path="url(#a)"><path d="m39.5404 47.825-14.17-6.575-9.412 2.7875-9.30801-4.3125 9.97101-12.3-1.703-3.0625 5.486-4.8625 8.502-.3375 9.841-3.5375 17.524 18.125-8.281 12.075z" fill="#ff1e1e"/><path d="m16.8153 35.8502c3.718 1.075 7.605.075 11.687-3.0125l19.11 11.9-3.9 2.3125h-6.37l-10.075-4.775-9.204 2.25-10.45197-4.575 7.44897-3.7zm6.76-14.0875c1.339-.3375 4.121 2.7875 4.251 3.55.494 2.65.702 4.4375-2.691 7.05-1.0029.8198-2.1794 1.42-3.4477 1.7589-1.2684.3389-2.5982.4084-3.8973.2036l.676-2.9125-2.457-4.7c1.7816-2.5037 4.4781-4.2709 7.553-4.95z" fill="#bf0000"/><path d="m17.7651 45.45-.221.0625-11.50504-4.975.26-.5625c1.833-4.075 4.55004-7.65 8.09904-10.725.5017-.4356 1.0131-.8607 1.534-1.275l-.598-1.0875-.728-1.3125-.234-.4375-.156-.2875.143-.2875c1.599-3.125 4.095-4.875 8.164-5.9375 2.483-.625 4.563-.5875 6.24.175 3.1012-1.6849 6.4369-2.9351 9.906-3.7125l.13-.025 18.785 19.375-.208.375c-1.5803 3.0449-3.2011 6.0701-4.862 9.075-2.249 4.075-5.98 5.55-10.829 4.875-3.64-.5-7.605-2.125-12.35-4.725l-1.43-.7625c-2.197.3125-5.59 1.0375-10.153 2.175zm-2.509-15.2625c-3.168 2.7074-5.72147 6.0137-7.50104 9.7125l7.95604 3.45c2.6557-.9258 5.3694-1.6898 8.125-2.2875-2.754-1.4869-5.51-2.9702-8.268-4.45l-.598-.325 3.029-4.5625-1.443-2.625c-.4404.3546-.8739.7172-1.3 1.0875zm4.849 6.075c4.914-.8375 8.762-4.5875 10.14-6.9625.2614-.3771.5128-.7606.754-1.15l6.734-11.525c-3.4327.8777-6.7101 2.2427-9.724 4.05l-1.404-.625c.2327-.1436.4667-.2852.702-.425-1.482-.292-3.017-.2145-4.459.225-3.588.9125-5.746 2.4-7.176 4.9875l.091.15.715 1.3125 2.548 4.625c.8142.1588 1.6524.1673 2.47.025 1.248-.175 2.392-.625 3.315-1.3375 1.833-1.425 2.808-2.5 2.886-3.45.091-1.125-.676-2.6375-2.821-5.5125 3.029 1.95 5.096 5.075 3.432 7.325v.0125c-.1711.2442-.3578.478-.559.7-.546.6-1.209 1.1875-2.119 1.9-1.1438.8572-2.5025 1.4092-3.939 1.6-.8214.1282-1.6579.1408-2.483.0375l-2.405 3.625c2.1462 1.1479 4.2912 2.2979 6.435 3.45v-.025c6.63-.3375 10.92-4.2 15.067-10.5375-3.172 6.475-7.098 10.625-13.156 11.6 1.274.675 2.418 1.3 3.458 1.875 6.5-.4125 10.426-3.8375 14.534-10.1125-3.133 6.4-6.747 10.175-12.61 11.15.6317.3426 1.2687.676 1.911 1-.0218-.0207-.0435-.0416-.065-.0625.2365.1282.4748.2532.715.375.3577.1705.7174.3372 1.079.5 6.474-.4 10.088-3.3875 14.196-9.6625-3.016 6.1625-6.24 9.5625-11.661 10.625 3.965 1.125 7.176.4375 10.4-1.5 1.105-.6875 3.757-4.3125 7.93-10.9l-16.068-16.575-6.838 11.725c-1.0618 1.7698-2.3793 3.3859-3.913 4.8-2.2773 1.8092-5.1591 2.7639-8.112 2.6875z" fill="#3c0000"/></g></svg>