<svg fill="none" height="64" viewBox="0 0 64 64" width="64" xmlns="http://www.w3.org/2000/svg"><rect fill="#edf1f6" height="64" rx="8" width="64"/><path d="m30.6208 9.36924c.8527-.49232 1.9033-.49232 2.7561 0l17.5318 10.12206c.8527.4923 1.378 1.4021 1.378 2.3868v20.244c0 .9846-.5253 1.8945-1.378 2.3868l-17.5318 10.122c-.8528.4923-1.9034.4923-2.7561 0l-17.5318-10.122c-.8528-.4923-1.3781-1.4022-1.3781-2.3868v-20.244c0-.9847.5253-1.8945 1.3781-2.3868z" fill="#009639"/><g fill="#fff"><path d="m21.6641 24.3637c0-1.4904 1.2082-2.6987 2.6986-2.6987s2.6986 1.2083 2.6986 2.6987v14.9286c0 1.4904-1.2082 2.6986-2.6986 2.6986s-2.6986-1.2082-2.6986-2.6986z"/><path d="m37.052 24.3637c0-1.4904 1.2082-2.6987 2.6987-2.6987 1.4904 0 2.6986 1.2083 2.6986 2.6987v14.9286c0 1.4904-1.2082 2.6986-2.6986 2.6986-1.4905 0-2.6987-1.2082-2.6987-2.6986z"/><path d="m23.6362 25.0847c-.7456-.8834-1.1331-2.2721-.2496-3.0178.7424-.6266 1.8995-.4433 2.8997.0241.3738.1747.6849.4544.951.7697l13.261 15.7123c.7456.8835.8835 2.2129 0 2.9586-.8835.7456-2.4128.5167-3.1993-.2584z"/></g></svg>