<svg fill="none" height="64" viewBox="0 0 64 64" width="64" xmlns="http://www.w3.org/2000/svg"><rect fill="#edf1f6" height="64" rx="8" width="64"/><g fill="#5fa04e"><path d="m32.374 53.9999c-.5955 0-1.1514-.1586-1.6681-.4363l-5.2832-3.1325c-.7944-.4363-.3972-.5949-.1592-.6743 1.0726-.357 1.2715-.4363 2.3837-1.0709.119-.0794.2777-.0397.3967.0396l4.0525 2.4191c.1587.0793.3575.0793.4765 0l15.8497-9.1606c.1592-.0793.2386-.2374.2386-.4357v-18.2814c0-.1984-.0794-.357-.238-.4364l-15.8503-9.1208c-.1586-.0794-.3581-.0794-.4765 0l-15.8502 9.1208c-.1598.0794-.2391.2777-.2391.4364v18.2814c0 .1581.0798.3564.2385.4357l4.3302 2.4984c2.3435 1.19 3.8134-.1983 3.8134-1.5861v-18.0434c0-.238.1983-.476.4765-.476h2.0262c.238 0 .4766.1984.4766.476v18.0434c0 3.1331-1.7078 4.9571-4.6877 4.9571-.9134 0-1.6285 0-3.6542-.9916l-4.1715-2.3794c-.5072-.294-.9282-.7162-1.2209-1.2242s-.4467-1.084-.4467-1.6703v-18.2814c-.0001-.5864.154-1.1625.4468-1.6706s.714-.9304 1.2214-1.2244l15.8496-9.1605c.9939-.5554 2.3442-.5554 3.3375 0l15.8496 9.1605c.5075.294.9288.7162 1.2217 1.2243s.447 1.0843.4471 1.6707v18.2814c-.0001.5864-.1544 1.1625-.4472 1.6705-.2929.508-.7142.9301-1.2216 1.224l-15.8496 9.1605c-.4766.1984-1.0727.357-1.6688.357z"/><path d="m37.3001 41.4294c-6.9525 0-8.3821-3.1727-8.3821-5.8694 0-.238.1983-.476.4765-.476h2.0659c.2386 0 .4369.1586.4369.3966.3179 2.1017 1.2313 3.1331 5.4424 3.1331 3.3369 0 4.7665-.7537 4.7665-2.5381 0-1.0307-.3966-1.7849-5.6011-2.3-4.3301-.4364-7.0307-1.3883-7.0307-4.8381 0-3.2118 2.7011-5.1152 7.2296-5.1152 5.0849 0 7.5871 1.7447 7.9055 5.5515 0 .119-.0402.238-.1195.357-.0793.0793-.1983.1586-.3179.1586h-2.1056c-.1018-.0033-.1998-.0401-.2787-.1046-.079-.0645-.1345-.1532-.1581-.2523-.4766-2.1817-1.7079-2.8951-4.9654-2.8951-3.6547 0-4.0916 1.2693-4.0916 2.2207 0 1.1503.5162 1.5073 5.4424 2.1414 4.8861.6347 7.1894 1.547 7.1894 4.9571 0 3.49-2.8994 5.4728-7.9044 5.4728z"/></g></svg>