<svg fill="none" height="64" viewBox="0 0 64 64" width="64" xmlns="http://www.w3.org/2000/svg"><rect fill="#edf1f6" height="64" rx="8" width="64"/><path d="m34.7825 46.4948h17.1588c.5475 0 1.0716-.1924 1.5457-.4637.4743-.2714.9631-.6121 1.2368-1.0822.2736-.47.4639-1.0033.4637-1.5459-.0002-.5427-.1897-1.0758-.4637-1.5456l-11.5938-19.9413c-.2737-.47-.608-.8108-1.082-1.0822-.4742-.2712-1.1531-.4637-1.7005-.4637s-1.0718.1925-1.5458.4637c-.4741.2714-.8085.6122-1.0822 1.0822l-2.937 5.1012-5.8742-9.8937c-.2739-.4699-.6078-.965-1.082-1.2363-.4743-.2713-.9983-.3092-1.5458-.3092-.5476 0-1.0717.0379-1.546.3092-.4741.2713-.9627.7664-1.2365 1.2363l-14.37633 24.7338c-.27408.4698-.30893 1.0029-.30917 1.5456-.00024.5426.0355 1.0758.30917 1.5459.27367.47.76248.8108 1.23663 1.0822.4742.2713.9983.4637 1.5459.4637h10.8208c4.2876 0 7.4084-1.9233 9.5842-5.565l5.2558-9.1204 2.7825-4.7921 8.502 14.5308h-11.2845zm-12.212-4.9467h-7.5747l11.2847-19.4775 5.7195 9.7388-3.7886 6.6045c-1.4449 2.3628-3.0923 3.1342-5.6409 3.1342z" fill="#00dc82"/></svg>