<svg fill="none" height="64" viewBox="0 0 64 64" width="64" xmlns="http://www.w3.org/2000/svg" xmlns:xlink="http://www.w3.org/1999/xlink"><linearGradient id="a"><stop offset="0" stop-color="#ff6533"/><stop offset=".157" stop-color="#ff5633"/><stop offset=".434" stop-color="#ff4333"/><stop offset=".714" stop-color="#ff3733"/><stop offset="1" stop-color="#f33"/></linearGradient><linearGradient id="b" gradientUnits="userSpaceOnUse" x1="27.5143" x2="39.3871" xlink:href="#a" y1="33.4334" y2="36.2089"/><linearGradient id="c" gradientUnits="userSpaceOnUse" x1="25.6574" x2="46.9358" y1="29.4978" y2="45.9962"><stop offset="0" stop-color="#bf3338"/><stop offset="1" stop-color="#f33"/></linearGradient><linearGradient id="d" gradientUnits="userSpaceOnUse" x1="26.3517" x2="29.4356" xlink:href="#a" y1="32.7474" y2="35.9854"/><linearGradient id="e" gradientUnits="userSpaceOnUse" x1="31.9598" x2="31.0346" xlink:href="#a" y1="38.3216" y2="25.0611"/><linearGradient id="f" gradientUnits="userSpaceOnUse" x1="27.9511" x2="32.3315" y1="32.5205" y2="35.4993"><stop offset="0" stop-color="#fbb040"/><stop offset="1" stop-color="#fb8840"/></linearGradient><linearGradient id="g" gradientUnits="userSpaceOnUse" x1="32.4386" x2="27.9671" y1="15.6789" y2="64.8659"><stop offset="0" stop-color="#fff"/><stop offset="1" stop-color="#fff" stop-opacity="0"/></linearGradient><rect fill="#edf1f6" height="64" rx="8" width="64"/><path d="m48.8337 24.4864c0-2.5904-.6785-5.0189-1.8735-7.1236-3.1686-3.2612-10.0609-4.0167-11.7724-.0155-1.7578 4.1015 2.9527 8.6656 5.0112 8.3032 2.6212-.4625-.4626-6.476-.4626-6.476 4.0089 7.5554 3.0838 5.2425-4.1632 12.1811s-14.6481 21.579-15.7275 22.1958c-.0462.0309-.0925.054-.1465.0771h28.4252c.5011 0 .8249-.5319.6013-.9791l-7.432-14.7098c-.1619-.3161-.0463-.7093.2621-.8866 4.3482-2.4979 7.2779-7.1854 7.2779-12.5666z" fill="url(#b)"/><path d="m48.8337 24.4864c0-2.5904-.6785-5.0189-1.8735-7.1236-3.1686-3.2612-10.0609-4.0167-11.7724-.0155-1.7578 4.1015 2.9527 8.6656 5.0112 8.3032 2.6212-.4625-.4626-6.476-.4626-6.476 4.0089 7.5554 3.0838 5.2425-4.1632 12.1811s-14.6481 21.579-15.7275 22.1958c-.0462.0309-.0925.054-.1465.0771h28.4252c.5011 0 .8249-.5319.6013-.9791l-7.432-14.7098c-.1619-.3161-.0463-.7093.2621-.8866 4.3482-2.4979 7.2779-7.1854 7.2779-12.5666z" fill="url(#c)"/><path d="m19.846 53.5511c1.0793-.6167 8.4805-15.2649 15.7275-22.2035s8.1721-4.6257 4.1632-12.1811c0 0-15.3421 21.5097-20.8929 32.1489" fill="url(#d)"/><path d="m22.0059 34.2774c10.3616-19.0503 11.7185-20.97 17.1152-20.97 2.8371 0 5.6973 1.2798 7.5477 3.5541-2.5211-4.0629-6.9849-6.7844-12.0964-6.8615h-17.6008c-.3701 0-.6708.3007-.6708.6707v35.4794c1.0485-2.706 2.8294-6.5762 5.7051-11.8727z" fill="url(#e)"/><path d="m35.5739 31.348c-7.247 6.9386-14.6482 21.5867-15.7275 22.2035-1.0794.6168-2.8911.6938-3.8548-.3855-1.0254-1.1487-2.6213-3.0067 6.0135-18.8884 10.3616-19.0503 11.7185-20.97 17.1152-20.97 2.8371 0 5.6973 1.2798 7.5476 3.5541.1003.162.2005.3315.3007.5011-3.1686-3.2611-10.061-4.0166-11.7725-.0154-1.7578 4.1015 2.9528 8.6656 5.0112 8.3032 2.6213-.4625-.4625-6.476-.4625-6.476 4.0012 7.5476 3.0761 5.2348-4.1709 12.1734z" fill="url(#f)"/><path d="m22.8531 35.1257c10.3616-19.0504 11.7185-20.97 17.1152-20.97 2.336 0 4.6874.8712 6.4761 2.4439-1.8503-2.1124-4.595-3.292-7.3241-3.292-5.3967 0-6.7536 1.9197-17.1152 20.97-8.6348 15.8817-7.0389 17.7397-6.0135 18.8884.1465.1619.3161.3007.4934.4164-.902-1.3107-1.3029-4.356 6.3681-18.4567z" fill="url(#g)" opacity=".3"/></svg>