<svg fill="none" height="64" viewBox="0 0 64 64" width="64" xmlns="http://www.w3.org/2000/svg"><rect fill="#edf1f6" height="64" rx="8" width="64"/><path d="m32.3128 55.7688c5.0312-17.9883 4.8852-18.07 8.5215-30.8959l.874.506c.4761.2725.8648.0483.8648-.4991v-6.118c.966-3.3787 1.7204-5.9915 1.9435-6.7735h3.9388l6.5446 6.0605-4.2987 3.7145 3.2511 3.5155-21.4234 30.49c-.1035.1725-.2496.1334-.2162 0zm2.3403-38.7734c.1955 0 .3519.1069.3519.2415v3.1337c0 .1311-.1576.2381-.3519.2381h-5.2901c-.1955 0-.353-.107-.353-.2392v-3.1349c0-.1323.1575-.2415.3519-.2415h5.29zm6.532-3.4707-5.8213 3.3603c.0667.1035.108.2219.108.3507v3.1361c0 .161-.0643.3082-.1678.4255l5.8799 3.3948c.4002.2323.7291.0425.7291-.4198v-9.8267c0-.4635-.3266-.6521-.7279-.4209zm-12.6431 6.8471v-3.1372c0-.1288.0413-.2473.108-.3496l-5.8213-3.3626c-.4002-.23-.7291-.0414-.7291.4209v9.8267c0 .4623.329.6521.7303.4198l5.8788-3.3948c-.1035-.1185-.1656-.2645-.1656-.4255zm2.929 35.397h.2162c-5.0301-17.9883-4.8852-18.07-8.5215-30.8959l-.874.506c-.475.2725-.8648.0483-.8648-.4991v-6.118c-.966-3.3776-1.7204-5.9915-1.9435-6.7735h-3.9376l-6.5458 6.0605 4.2975 3.7145-3.251 3.5167zm.3691-28.6132c.8778 0 1.5894-.7115 1.5894-1.5893 0-.8777-.7116-1.5893-1.5894-1.5893-.8777 0-1.5892.7116-1.5892 1.5893 0 .8778.7115 1.5893 1.5892 1.5893zm0 9.4473c.8778 0 1.5894-.7116 1.5894-1.5893 0-.8778-.7116-1.5893-1.5894-1.5893-.8777 0-1.5892.7115-1.5892 1.5893 0 .8777.7115 1.5893 1.5892 1.5893zm0 9.4495c.8778 0 1.5894-.7115 1.5894-1.5893 0-.8777-.7116-1.5893-1.5894-1.5893-.8777 0-1.5892.7116-1.5892 1.5893 0 .8778.7115 1.5893 1.5892 1.5893z" fill="#000" opacity=".98"/></svg>