<svg fill="none" height="64" viewBox="0 0 64 64" width="64" xmlns="http://www.w3.org/2000/svg" xmlns:xlink="http://www.w3.org/1999/xlink"><clipPath id="a"><rect height="54" rx="4" width="54" x="5" y="5"/></clipPath><rect fill="#edf1f6" height="64" rx="8" width="64"/><g clip-path="url(#a)"><path d="m6.5293 32h50.94v18c0 4.23-3.24 7.47-7.47 7.47h-36c-4.23 0-7.47-3.24-7.47-7.47z" fill="#111316"/><g fill="#ffb13b"><path d="m16.8532 29.1467c-.5644-.5643-1.2833-.9486-2.0661-1.1043-.7827-.1557-1.594-.0758-2.3313.2296-.7374.3054-1.3675.8226-1.8109 1.4862-.4434.6635-.68006 1.4437-.68006 2.2417 0 .7981.23666 1.5782.68006 2.2418s1.0735 1.1807 1.8109 1.4861c.7373.3055 1.5486.3854 2.3313.2297.7828-.1557 1.5017-.54 2.0661-1.1043h30.2935c.5643.5643 1.2833.9486 2.066 1.1043s1.5941.0758 2.3314-.2297c.7373-.3054 1.3675-.8225 1.8109-1.4861.4433-.6636.68-1.4437.68-2.2418 0-.798-.2367-1.5782-.68-2.2417-.4434-.6636-1.0736-1.1808-1.8109-1.4862s-1.5487-.3853-2.3314-.2296-1.5017.54-2.066 1.1043z" stroke="#111316" stroke-width="38.0086"/><path d="m23.3066 19.2719c0-.7981-.2367-1.5782-.6801-2.2418-.4434-.6635-1.0735-1.1807-1.8109-1.4861-.7373-.3054-1.5486-.3853-2.3313-.2297-.7828.1557-1.5017.54-2.066 1.1044-.5644.5643-.9487 1.2833-1.1044 2.066s-.0757 1.594.2297 2.3313c.3054.7374.8225 1.3676 1.4861 1.8109.6636.4434 1.4437.6801 2.2418.6801l21.4207 21.4207c0 .7981.2367 1.5782.6801 2.2418s1.0735 1.1808 1.8109 1.4862c.7373.3054 1.5486.3853 2.3313.2296.7828-.1557 1.5017-.54 2.0661-1.1043.5643-.5644.9486-1.2833 1.1043-2.0661.1557-.7827.0758-1.594-.2297-2.3313-.3054-.7373-.8225-1.3675-1.4861-1.8109s-1.4437-.68-2.2418-.68z" stroke="#111316" stroke-width="38.0086"/><path d="m34.8533 16.8532c.5643-.5644.9486-1.2833 1.1043-2.0661.1557-.7827.0758-1.594-.2296-2.3313-.3054-.7374-.8226-1.3675-1.4862-1.8109-.6635-.4434-1.4437-.68006-2.2417-.68006-.7981 0-1.5782.23666-2.2418.68006s-1.1807 1.0735-1.4861 1.8109c-.3055.7373-.3854 1.5486-.2297 2.3313.1557.7828.54 1.5017 1.1043 2.0661v30.2935c-.5643.5643-.9486 1.2833-1.1043 2.066s-.0758 1.5941.2297 2.3314c.3054.7373.8225 1.3675 1.4861 1.8109.6636.4433 1.4437.68 2.2418.68.798 0 1.5782-.2367 2.2417-.68.6636-.4434 1.1808-1.0736 1.4862-1.8109s.3853-1.5487.2296-2.3314-.54-1.5017-1.1043-2.066z" stroke="#111316" stroke-width="38.0086"/><path d="m44.7271 23.3071c.7981-.0001 1.5782-.2367 2.2418-.6801s1.1808-1.0736 1.4862-1.8109.3853-1.5486.2296-2.3313c-.1557-.7828-.54-1.5017-1.1043-2.0661-.5644-.5643-1.2833-.9486-2.0661-1.1043-.7827-.1557-1.594-.0758-2.3313.2296-.7373.3055-1.3675.8226-1.8109 1.4862s-.68 1.4437-.68 2.2418l-21.4208 21.4207c-.7981 0-1.5782.2367-2.2418.6801-.6635.4433-1.1807 1.0735-1.4861 1.8109-.3054.7373-.3853 1.5486-.2297 2.3313.1557.7827.54 1.5017 1.1044 2.066.5643.5644 1.2833.9487 2.066 1.1044.7827.1556 1.594.0757 2.3313-.2297.7374-.3054 1.3676-.8226 1.8109-1.4861.4434-.6636.6801-1.4437.6801-2.2418z" stroke="#111316" stroke-width="38.0086"/><path d="m16.8532 29.1467c-.5644-.5643-1.2833-.9486-2.0661-1.1043-.7827-.1557-1.594-.0758-2.3313.2296-.7374.3054-1.3675.8226-1.8109 1.4862-.4434.6635-.68006 1.4437-.68006 2.2417 0 .7981.23666 1.5782.68006 2.2418s1.0735 1.1807 1.8109 1.4861c.7373.3055 1.5486.3854 2.3313.2297.7828-.1557 1.5017-.54 2.0661-1.1043h30.2935c.5643.5643 1.2833.9486 2.066 1.1043s1.5941.0758 2.3314-.2297c.7373-.3054 1.3675-.8225 1.8109-1.4861.4433-.6636.68-1.4437.68-2.2418 0-.798-.2367-1.5782-.68-2.2417-.4434-.6636-1.0736-1.1808-1.8109-1.4862s-1.5487-.3853-2.3314-.2296-1.5017.54-2.066 1.1043z"/><path d="m23.3066 19.2719c0-.7981-.2367-1.5782-.6801-2.2418-.4434-.6635-1.0735-1.1807-1.8109-1.4861-.7373-.3054-1.5486-.3853-2.3313-.2297-.7828.1557-1.5017.54-2.066 1.1044-.5644.5643-.9487 1.2833-1.1044 2.066s-.0757 1.594.2297 2.3313c.3054.7374.8225 1.3676 1.4861 1.8109.6636.4434 1.4437.6801 2.2418.6801l21.4207 21.4207c0 .7981.2367 1.5782.6801 2.2418s1.0735 1.1808 1.8109 1.4862c.7373.3054 1.5486.3853 2.3313.2296.7828-.1557 1.5017-.54 2.0661-1.1043.5643-.5644.9486-1.2833 1.1043-2.0661.1557-.7827.0758-1.594-.2297-2.3313-.3054-.7373-.8225-1.3675-1.4861-1.8109s-1.4437-.68-2.2418-.68z"/><path d="m34.8533 16.8532c.5643-.5644.9486-1.2833 1.1043-2.0661.1557-.7827.0758-1.594-.2296-2.3313-.3054-.7374-.8226-1.3675-1.4862-1.8109-.6635-.4434-1.4437-.68006-2.2417-.68006-.7981 0-1.5782.23666-2.2418.68006s-1.1807 1.0735-1.4861 1.8109c-.3055.7373-.3854 1.5486-.2297 2.3313.1557.7828.54 1.5017 1.1043 2.0661v30.2935c-.5643.5643-.9486 1.2833-1.1043 2.066s-.0758 1.5941.2297 2.3314c.3054.7373.8225 1.3675 1.4861 1.8109.6636.4433 1.4437.68 2.2418.68.798 0 1.5782-.2367 2.2417-.68.6636-.4434 1.1808-1.0736 1.4862-1.8109s.3853-1.5487.2296-2.3314-.54-1.5017-1.1043-2.066z"/><path d="m44.7271 23.3071c.7981-.0001 1.5782-.2367 2.2418-.6801s1.1808-1.0736 1.4862-1.8109.3853-1.5486.2296-2.3313c-.1557-.7828-.54-1.5017-1.1043-2.0661-.5644-.5643-1.2833-.9486-2.0661-1.1043-.7827-.1557-1.594-.0758-2.3313.2296-.7373.3055-1.3675.8226-1.8109 1.4862s-.68 1.4437-.68 2.2418l-21.4208 21.4207c-.7981 0-1.5782.2367-2.2418.6801-.6635.4433-1.1807 1.0735-1.4861 1.8109-.3054.7373-.3853 1.5486-.2297 2.3313.1557.7827.54 1.5017 1.1044 2.066.5643.5644 1.2833.9487 2.066 1.1044.7827.1556 1.594.0757 2.3313-.2297.7374-.3054 1.3676-.8226 1.8109-1.4861.4434-.6636.6801-1.4437.6801-2.2418z"/></g><path d="m6.5293 32h50.94v18c0 4.23-3.24 7.47-7.47 7.47h-36c-4.23 0-7.47-3.24-7.47-7.47z" fill="#111316"/><path d="m14.1726 44.7149c-1.1949-1.1944-1.9343-2.844-1.9343-4.6659 0-3.6454 2.9567-6.6003 6.6002-6.6003 3.6454 0 6.6021 2.9549 6.6021 6.6003h-3.8664c0-1.5099-1.2255-2.7335-2.7357-2.7335-1.5098 0-2.7335 1.2236-2.7335 2.7335 0 .7542.3064 1.4375.7992 1.9307h.0018c.495.4968.9072.6404 1.9325.8031 1.8238.1897 3.4733.7395 4.6678 1.9339 1.1948 1.1949 1.9343 2.8444 1.9343 4.6664 0 3.6453-2.9567 6.602-6.6021 6.602-3.6435 0-6.6002-2.9567-6.6002-6.602h3.8667c0 1.5098 1.2237 2.7352 2.7335 2.7352 1.5102 0 2.7357-1.2254 2.7357-2.7352 0-.7542-.3064-1.4357-.7996-1.9307h-.0018c-.495-.495-1.2053-.6657-1.9343-.8014v-.0018c-1.7676-.2711-3.4715-.7394-4.6659-1.9343z" fill="#fff"/><path d="m38.6426 33.4487-4.6692 22.5364h-3.8664l-4.6656-22.5364h3.8664l2.736 13.1987 2.7324-13.1987z" fill="#fff"/><path d="m45.2446 42.7829h6.6003v6.6003h.0018c0 3.6457-2.9567 6.6024-6.6021 6.6024-3.6457 0-6.6002-2.9567-6.6002-6.6024v-9.3337h-.0018c0-3.6454 2.9563-6.6003 6.602-6.6003 3.6436 0 6.6003 2.9549 6.6003 6.6003h-3.8668c0-1.5084-1.2254-2.7339-2.7335-2.7339-1.5102 0-2.7338 1.2255-2.7338 2.7339v9.3337c0 1.5102 1.2236 2.7338 2.7338 2.7338 1.5081 0 2.7317-1.2236 2.7335-2.732v-.0018-2.7317h-2.7335z" fill="#fff"/></g></svg>