<svg fill="none" height="64" viewBox="0 0 64 64" width="64" xmlns="http://www.w3.org/2000/svg" xmlns:xlink="http://www.w3.org/1999/xlink"><linearGradient id="a" gradientUnits="userSpaceOnUse" x1="10.6441" x2="35.6916" y1="14.5943" y2="48.1129"><stop offset="0" stop-color="#41d1ff"/><stop offset="1" stop-color="#bd34fe"/></linearGradient><linearGradient id="b" gradientUnits="userSpaceOnUse" x1="30.8884" x2="35.4642" y1="11.9606" y2="42.8906"><stop offset="0" stop-color="#ffea83"/><stop offset=".0833333" stop-color="#ffdd35"/><stop offset="1" stop-color="#ffa800"/></linearGradient><rect fill="#edf1f6" height="64" rx="8" width="64"/><path d="m52.8885 17.4831-19.7462 35.8339c-.4077.7398-1.4551.7442-1.8689.0079l-20.1376-35.8384c-.4509-.8023.2252-1.7741 1.121-1.6116l19.7673 3.5858c.1261.0228.2552.0226.3813-.0007l19.3539-3.58c.8929-.1651 1.5721.7992 1.1292 1.6031z" fill="url(#a)"/><path d="m41.4392 11.1716-14.6127 2.9059c-.2402.0477-.418.2543-.4325.5022l-.8989 15.4069c-.0211.3629.3073.6446.6563.5629l4.0683-.9529c.3807-.0891.7246.2512.6464.6396l-1.2087 6.0068c-.0813.4043.2927.75.6817.6301l2.5128-.7748c.3896-.1201.7639.2266.6815.6312l-1.9209 9.4353c-.1202.5902.6533.912.9759.406l.2155-.3379 11.9073-24.116c.1994-.4038-.1445-.8642-.5814-.7786l-4.1878.8202c-.3935.077-.7283-.2949-.6173-.6856l2.7333-9.6159c.1112-.3914-.2248-.7637-.6188-.6854z" fill="url(#b)"/></svg>