<svg fill="none" height="64" viewBox="0 0 64 64" width="64" xmlns="http://www.w3.org/2000/svg" xmlns:xlink="http://www.w3.org/1999/xlink"><filter id="a" color-interpolation-filters="sRGB" filterUnits="userSpaceOnUse" height="45.6139" width="54.9909" x="3.34244" y="13.5133"><feFlood flood-opacity="0" result="BackgroundImageFix"/><feColorMatrix in="SourceAlpha" result="hardAlpha" type="matrix" values="0 0 0 0 0 0 0 0 0 0 0 0 0 0 0 0 0 0 127 0"/><feOffset/><feGaussianBlur stdDeviation="4.16667"/><feColorMatrix type="matrix" values="0 0 0 0 0 0 0 0 0 0 0 0 0 0 0 0 0 0 0.25 0"/><feBlend in2="BackgroundImageFix" mode="overlay" result="effect1_dropShadow_4002_847"/><feBlend in="SourceGraphic" in2="effect1_dropShadow_4002_847" mode="normal" result="shape"/></filter><filter id="b" color-interpolation-filters="sRGB" filterUnits="userSpaceOnUse" height="54.7697" width="28.6354" x="29.6979" y="4.35758"><feFlood flood-opacity="0" result="BackgroundImageFix"/><feColorMatrix in="SourceAlpha" result="hardAlpha" type="matrix" values="0 0 0 0 0 0 0 0 0 0 0 0 0 0 0 0 0 0 127 0"/><feOffset/><feGaussianBlur stdDeviation="4.16667"/><feColorMatrix type="matrix" values="0 0 0 0 0 0 0 0 0 0 0 0 0 0 0 0 0 0 0.25 0"/><feBlend in2="BackgroundImageFix" mode="overlay" result="effect1_dropShadow_4002_847"/><feBlend in="SourceGraphic" in2="effect1_dropShadow_4002_847" mode="normal" result="shape"/></filter><linearGradient id="c" gradientUnits="userSpaceOnUse" x1="30.8261" x2="30.8261" y1="12.6909" y2="50.794"><stop offset="0" stop-color="#fff"/><stop offset="1" stop-color="#fff" stop-opacity="0"/></linearGradient><mask id="d" height="39" maskUnits="userSpaceOnUse" width="39" x="11" y="12"><path clip-rule="evenodd" d="m38.8589 50.6312c.6032.235 1.291.2199 1.8999-.0731l7.8855-3.7943c.8285-.3987 1.3555-1.2373 1.3555-2.1573v-25.728c0-.9199-.5269-1.7585-1.3555-2.1572l-7.8855-3.7945c-.7991-.3845-1.7342-.2903-2.4355.2195-.1002.0729-.1956.1542-.2852.2438l-15.0957 13.7722-6.5754-4.9913c-.6121-.4647-1.4683-.4266-2.0368.0905l-2.1089 1.9184c-.6954.6326-.6962 1.7266-.0018 2.3602l5.7025 5.2024-5.7025 5.2024c-.6944.6335-.6936 1.7276.0018 2.3601l2.1089 1.9184c.5685.5171 1.4247.5552 2.0368.0905l6.5754-4.9912 15.0957 13.7721c.2388.239.5192.4189.8208.5364zm1.5716-27.5834-11.4542 8.6947 11.4542 8.6946z" fill="#fff" fill-rule="evenodd"/></mask><rect fill="#edf1f6" height="64" rx="8" width="64"/><g mask="url(#d)"><path d="m48.6443 16.7273-7.8916-3.7996c-.9135-.4398-2.0051-.2543-2.722.4626l-25.8343 23.5547c-.6949.6336-.6941 1.7276.0017 2.3601l2.1103 1.9184c.5688.5172 1.4255.5552 2.038.0906l31.1104-23.601c1.0437-.7918 2.5428-.0474 2.5428 1.2627v-.0917c0-.9195-.5268-1.7578-1.3553-2.1568z" fill="#0065a9"/><g filter="url(#a)"><path d="m48.6443 46.7579-7.8916 3.7997c-.9135.4399-2.0051.2543-2.722-.4626l-25.8343-23.5548c-.6949-.6335-.6941-1.7276.0017-2.3601l2.1103-1.9184c.5688-.5171 1.4255-.5552 2.038-.0906l31.1104 23.6011c1.0437.7918 2.5428.0473 2.5428-1.2627v.0916c0 .9196-.5268 1.7579-1.3553 2.1568z" fill="#007acc"/></g><g filter="url(#b)"><path d="m40.7536 50.5581c-.9138.4396-2.0054.2537-2.7224-.4633.8834.8834 2.3938.2577 2.3938-.9915v-34.7216c0-1.2493-1.5104-1.875-2.3938-.9916.717-.7169 1.8086-.9027 2.7224-.4633l7.8902 3.7945c.8291.3987 1.3564 1.2373 1.3564 2.1572v25.728c0 .92-.5273 1.7586-1.3564 2.1573z" fill="#1f9cf0"/></g><path clip-rule="evenodd" d="m38.8354 50.6312c.6033.235 1.2911.2199 1.9-.0731l7.8854-3.7943c.8286-.3987 1.3555-1.2373 1.3555-2.1573v-25.7279c0-.9201-.5269-1.7586-1.3555-2.1574l-7.8854-3.7944c-.7991-.3845-1.7342-.2903-2.4356.2195-.1001.0729-.1956.1542-.2851.2438l-15.0958 13.7721-6.5754-4.9912c-.612-.4647-1.4682-.4266-2.0367.0905l-2.109 1.9184c-.6953.6326-.6961 1.7266-.0017 2.3602l5.7024 5.2024-5.7024 5.2024c-.6944.6336-.6936 1.7275.0017 2.3601l2.109 1.9184c.5685.5171 1.4247.5552 2.0367.0906l6.5754-4.9913 15.0958 13.7721c.2388.2389.5192.4189.8207.5364zm1.5716-27.5834-11.4542 8.6947 11.4542 8.6946z" fill="url(#c)" fill-rule="evenodd" opacity=".25"/></g></svg>